<svg width="146" height="20" viewBox="0 0 146 20" fill="none" xmlns="http://www.w3.org/2000/svg">
<path d="M0 0.0012207H10.5582V3.34832C10.5582 8.67016 8.2157 11.3311 3.53059 11.3311V19.8571H0V0.0012207ZM6.00288 7.56938C6.68509 6.83595 7.02766 5.80966 7.02766 4.49397V2.66333H3.53059V8.67132C4.4956 8.67014 5.31921 8.304 6.00288 7.56938Z" fill="#AA111D"/>
<path d="M15.2881 0.00195312H25.8463V19.8578H22.3157V9.84365C21.5388 9.84365 20.8332 9.77755 20.1977 9.64291C19.256 10.1578 18.8318 11.1405 18.9265 12.5896L19.4921 19.8567H15.9965L15.4674 12.5896L15.4324 11.9885C15.4324 10.3291 16.0563 9.04177 17.3041 8.12645C15.9616 6.79185 15.291 4.70253 15.291 1.86091V0.00195312H15.2881ZM19.8435 6.08203C20.5257 6.81665 21.3493 7.18391 22.3157 7.18391V2.66406H18.8201V3.00771C18.8187 4.32222 19.1598 5.34859 19.8435 6.08203Z" fill="#AA111D"/>
<path d="M31.9941 0.00195312H41.9868V5.60961H38.4562V2.66285H35.5247V6.89695C37.5495 6.89695 39.22 7.33982 40.5393 8.22679C41.8571 9.11377 42.5174 10.4921 42.5174 12.3605L42.4824 12.9617L41.9533 19.8567H31.9956V0.00195312H31.9941ZM38.6326 17.1969L38.9854 12.9628C39.1734 10.6929 38.0203 9.55785 35.5247 9.55785V17.1969H38.6326Z" fill="#AA111D"/>
<path d="M47.9863 0.00121104H51.5169V7.83984L55.0125 5.43644V0H58.5081V19.8559H55.0125V8.92644L51.5169 11.3299V19.8559H47.9863V0.00121104V0.00121104Z" fill="#AA111D"/>
<path d="M64.6533 0.00195312H68.1839V7.18276H71.6445V0.00195312H75.1751V19.8578H71.6445V9.84365H68.1839V19.8578H64.6533V0.00195312Z" fill="#AA111D"/>
<path d="M84.0761 0.0012207L85.6651 8.81307H86.2307L87.7846 0.0012207H92.5163V2.66212H90.856L88.7729 12.9905C89.7146 13.2007 90.4507 13.6011 90.9799 14.1916C91.509 14.7833 91.7744 15.5274 91.7744 16.4238C91.7744 17.5493 91.3735 18.4269 90.5732 19.0564C89.7729 19.6859 88.7015 20 87.3604 20H84.9945C83.652 20 82.5805 19.6859 81.7817 19.0564C80.9814 18.4269 80.5805 17.5493 80.5805 16.4238C80.5805 15.2982 80.98 14.4207 81.7817 13.7912C82.582 13.1617 83.6534 12.8476 84.9945 12.8476H85.5237L85.7715 11.474H82.8765L80.4756 0.0012207H84.0761V0.0012207ZM85.4887 17.482H86.8662C87.9726 17.482 88.5266 17.1289 88.5266 16.4238C88.5266 15.7187 87.9726 15.3656 86.8662 15.3656H85.4887C84.3823 15.3656 83.8283 15.7187 83.8283 16.4238C83.8298 17.1301 84.3823 17.482 85.4887 17.482Z" fill="#AA111D"/>
<path d="M101.134 0.0012207V17.1962H103.852L103.817 0.0012207H107.348V17.1962H110.067L110.032 0.0012207H113.562V19.8571H97.6366L97.6016 0.0012207H101.134Z" fill="#AA111D"/>
<path d="M119.708 0.00195312H123.239V6.63946C123.591 6.65835 124.097 6.70677 124.758 6.78236L126.135 0.00195312H130.69V2.66285H128.925L127.76 7.78389C129.479 8.83267 130.256 10.4732 130.091 12.7053L129.562 19.8578H126.03L126.596 12.7053L126.631 12.2188C126.631 11.2657 126.348 10.5594 125.784 10.1011C125.218 9.64289 124.371 9.38542 123.242 9.32873V19.8578H119.711V0.00195312H119.708Z" fill="#AA111D"/>
<path d="M137.186 5.91002C138.504 4.92738 140.222 4.43607 142.342 4.43607L142.377 2.66212H135.773V0.0012207H145.907V19.8571H142.377V13.3908H139.058L139.445 19.8571H135.915L135.386 10.502C135.268 8.4233 135.868 6.89266 137.186 5.91002ZM138.881 10.7311H142.377V7.09696C141.199 7.09696 140.305 7.36391 139.693 7.89775C139.081 8.43159 138.81 9.29967 138.881 10.5008V10.7311Z" fill="#AA111D"/>
</svg>
