<svg width="146" height="20" viewBox="0 0 146 20" fill="none" xmlns="http://www.w3.org/2000/svg">
<path d="M19.7556 0.841919L19.8178 3.96746C19.8178 8.74631 19.4224 13.8343 18.6318 19.2252H11.1725C11.6507 15.2313 11.8907 11.2598 11.8907 7.31269C11.8907 5.94005 11.8596 4.57959 11.7974 3.23134H11.2675C10.0815 3.23134 9.09235 3.30452 8.30171 3.45093V4.62837C8.30171 9.55566 7.94782 14.4199 7.24004 19.2252H0.124293C0.416035 16.6019 0.561043 13.7346 0.561043 10.6212C0.561043 7.50787 0.374604 4.24812 0 0.841919H19.7556Z" fill="#D20D21"/>
<path d="M37.1086 8.23181L40.0415 8.45145C40.3333 8.45145 40.5508 8.43927 40.6975 8.41486L39.2302 11.6502H38.9488C38.5535 11.6502 37.9907 11.5221 37.2639 11.2639C36.5354 11.0056 36.0158 10.8775 35.7034 10.8775C34.8506 10.8775 34.1739 11.5282 33.675 12.8256C33.5921 14.0275 33.53 15.2272 33.4885 16.4291C34.5709 16.6751 35.4237 16.7972 36.0486 16.7972H36.33C37.2242 16.7972 37.9372 16.5653 38.4671 16.0976C38.9971 15.6319 39.3769 14.7982 39.6065 13.5984L43.3525 13.7814C43.0401 15.8902 42.624 17.7041 42.1044 19.2232H26.7802C26.3642 15.9146 26.1553 12.6304 26.1553 9.37062C26.1553 6.11084 26.3003 3.26795 26.592 0.841919H43.3215C42.9469 3.4896 42.6137 5.35233 42.3219 6.43012C41.0946 6.50332 39.9707 6.55212 38.9505 6.57653C39.1162 6.01323 39.2008 5.48654 39.2008 4.99645C39.2008 3.81902 38.4516 3.23134 36.9532 3.23134C36.3922 3.23134 35.7672 3.30452 35.0802 3.45093C34.6227 5.77935 34.2688 7.82514 34.0185 9.59026C34.8523 8.68533 35.8812 8.23181 37.1086 8.23181Z" fill="#D20D21"/>
<path d="M68.3503 19.2253H61.1413C60.7667 14.298 59.705 9.92381 57.958 6.10074C56.8342 9.1165 56.2732 11.8862 56.2732 14.4099C56.2732 16.1262 56.5442 17.7306 57.0845 19.2253H48.9692C48.8242 18.2207 48.75 16.8725 48.75 15.1806C48.75 13.4887 48.9468 11.8476 49.3438 10.2533C50.863 9.7388 52.3182 8.8623 53.7131 7.62387C55.1062 6.38747 56.1057 5.0677 56.7099 3.67065C56.2524 2.8125 55.6586 1.86894 54.9301 0.839966H65.2602C67.3197 6.06213 68.3503 12.1912 68.3503 19.2253Z" fill="#D20D21"/>
<path d="M74.0609 19.2252C73.5827 16.8724 73.3428 13.8078 73.3428 10.0336C73.3428 6.25929 73.6345 3.19474 74.2163 0.841919H81.9259C81.5927 3.17034 81.3735 5.26691 81.2699 7.12964C84.9106 7.61973 88.1457 8.69749 90.9768 10.365C90.9146 13.6248 90.5815 16.5775 89.9773 19.2252H74.0609V19.2252ZM81.2095 9.66548C81.2095 12.2644 81.4701 14.6416 81.9897 16.7972C83.0721 15.2293 83.7575 13.1815 84.0492 10.6579C83.1325 10.0946 82.1865 9.76512 81.2095 9.66548ZM100.653 4.59178C100.653 9.71429 100.299 14.5928 99.591 19.2252H92.5063C92.7756 16.8236 92.912 13.9502 92.912 10.603C92.912 7.25777 92.7255 4.00409 92.3509 0.841919H100.59C100.632 2.50943 100.653 3.76005 100.653 4.59178Z" fill="#D20D21"/>
<path d="M118.411 3.08493C117.683 2.93852 116.98 2.86529 116.305 2.86529C115.629 2.86529 114.812 2.9995 113.856 3.26997C113.543 4.81343 113.388 6.32233 113.388 7.79258C113.388 11.5913 114.824 14.5094 117.695 16.543C119.609 15.0483 121.336 13.1856 122.875 10.9548C122.938 11.9349 122.989 13.4316 123.031 15.4408C121.491 16.8622 119.92 17.9787 118.318 18.786C116.716 19.5953 114.719 20 112.326 20H111.608C109.735 19.0442 108.262 17.635 107.192 15.7722C106.12 13.9095 105.585 11.9492 105.585 9.88919C105.585 7.14389 106.541 4.80939 108.456 2.88565C110.37 0.961908 113.148 0 116.789 0C118.827 0 120.959 0.30707 123.186 0.919169C122.853 2.46264 122.437 3.92273 121.938 5.29334C120.628 5.43976 119.274 5.51298 117.881 5.51298C118.088 4.82564 118.266 4.0163 118.411 3.08493Z" fill="#D20D21"/>
<path d="M129.023 19.2252C128.524 16.7748 128.273 13.7041 128.273 10.0152C128.273 6.32638 128.576 3.26795 129.178 0.841919H136.857C136.523 3.12153 136.306 5.20592 136.201 7.09305C139.841 7.58314 143.076 8.6609 145.907 10.3284C145.845 13.6126 145.523 16.5796 144.941 19.2252H129.023V19.2252ZM136.138 9.62889C136.138 12.2034 136.399 14.5806 136.919 16.7606C138.022 15.1419 138.707 13.0961 138.978 10.6212C138.063 10.0579 137.117 9.72853 136.138 9.62889Z" fill="#D20D21"/>
</svg>
