<svg width="1346" height="402" viewBox="0 0 1346 402" fill="none" xmlns="http://www.w3.org/2000/svg">
<path d="M1043.61 185.539L1096.13 143.137C1097.23 142.248 1097.38 140.597 1096.4 139.587C1084.77 127.545 1064.36 127.156 1049.52 139.136C1034.68 151.116 1030.75 171.145 1040.08 185.054C1040.86 186.224 1042.51 186.427 1043.61 185.539Z" fill="#FF6633"/>
<path d="M1223.07 45.4462C1220.48 41.2546 1221.79 35.7443 1226 33.1388L1270.64 5.53956C1274.86 2.93398 1280.37 4.21974 1282.96 8.41138L1291.06 21.5035C1293.65 25.6951 1292.34 31.2054 1288.12 33.8109L1243.49 61.4101C1239.27 64.0157 1233.75 62.7299 1231.16 58.5383L1223.07 45.4462Z" fill="#1CB9FC"/>
<path d="M33.959 31.6389C38.2825 26.1328 50.7146 28.6789 61.7269 37.3258C72.7392 45.9727 78.1616 57.4461 73.8381 62.9522C69.5146 68.4584 57.0825 65.9123 46.0702 57.2654C35.0579 48.6184 29.6355 37.1451 33.959 31.6389Z" fill="#FCA21C"/>
<path d="M611.067 369.349L583.335 308.258C582.754 306.978 581.204 306.421 579.987 307.115C565.506 315.306 560.053 334.85 567.888 352.11C575.722 369.37 594.018 378.133 609.722 372.622C611.044 372.157 611.648 370.629 611.067 369.349Z" fill="#FF6633"/>
<path d="M16.4856 353.513C19.7256 353.217 22.5934 355.616 22.8912 358.872L26.0451 393.357C26.3429 396.613 23.9578 399.493 20.7178 399.789L10.5983 400.714C7.35835 401.011 4.49049 398.612 4.19273 395.356L1.03879 360.87C0.741032 357.615 3.12614 354.735 6.36607 354.439L16.4856 353.513Z" fill="#1CB9FC"/>
<path d="M1266.48 316.641C1272.01 307.07 1292 308.27 1311.15 319.322C1330.29 330.373 1341.32 347.09 1335.8 356.661C1330.27 366.232 1310.28 365.031 1291.14 353.98C1271.99 342.929 1260.96 326.212 1266.48 316.641Z" fill="#FCA21C"/>
<path fill-rule="evenodd" clip-rule="evenodd" d="M725.592 41.317C726.132 36.7051 730.318 33.3802 734.943 33.8906C745.357 35.0399 755.084 41.3239 760.769 51.172C766.455 61.0203 767.032 72.5856 762.822 82.1773C760.952 86.4377 755.98 88.4012 751.716 86.5629C747.452 84.7246 745.511 79.7807 747.381 75.5204C749.367 70.9942 749.265 65.0245 746.143 59.6167C743.02 54.2071 737.901 51.1338 732.989 50.5917C728.364 50.0813 725.053 45.9289 725.592 41.317Z" fill="#70C05B"/>
<path fill-rule="evenodd" clip-rule="evenodd" d="M279.357 335.381C284.157 337.631 286.245 343.366 284.022 348.19C279.016 359.052 268.697 367.316 255.978 369.916C243.259 372.516 230.526 368.962 221.66 360.938C217.722 357.374 217.392 351.28 220.923 347.327C224.453 343.373 230.509 343.057 234.447 346.621C238.631 350.407 245.132 352.453 252.117 351.025C259.103 349.597 264.28 345.164 266.642 340.041C268.865 335.217 274.558 333.131 279.357 335.381Z" fill="#70C05B"/>
</svg>
