<svg width="669" height="372" viewBox="0 0 669 372" fill="none" xmlns="http://www.w3.org/2000/svg">
<path d="M57.9986 370.922C57.9986 370.922 -17.7172 273.367 3.87305 185.928C25.4609 98.4881 59.1609 -1.96943 178.806 9.43844C336.789 24.5039 416.992 -6.72051 476.876 1.35896C536.76 9.43844 621.868 31.6462 654.931 140.863C687.995 250.08 652.41 370.922 652.41 370.922H57.9986Z" fill="#E5FFDE"/>
<path d="M297.088 129.815H345.242C346.216 129.815 347.006 129.025 347.006 128.051V99.7093C347.006 98.7355 346.216 97.9453 345.242 97.9453H297.088C296.114 97.9453 295.324 98.7355 295.324 99.7093V128.051C295.324 129.025 296.114 129.815 297.088 129.815Z" fill="white"/>
<path d="M300.177 103.747H343.271C343.569 103.747 343.811 103.505 343.811 103.207C343.811 102.909 343.569 102.667 343.271 102.667H300.177C299.879 102.667 299.638 102.909 299.638 103.207C299.638 103.505 299.879 103.747 300.177 103.747Z" fill="#61A3C5"/>
<path d="M300.177 109.881H343.271C343.569 109.881 343.811 109.639 343.811 109.341C343.811 109.043 343.569 108.801 343.271 108.801H300.177C299.879 108.801 299.638 109.043 299.638 109.341C299.638 109.639 299.879 109.881 300.177 109.881Z" fill="#61A3C5"/>
<path d="M315.273 116.014H343.274C343.571 116.014 343.813 115.773 343.813 115.475C343.813 115.177 343.571 114.935 343.274 114.935H315.273C314.975 114.935 314.733 115.177 314.733 115.475C314.733 115.773 314.975 116.014 315.273 116.014Z" fill="#61A3C5"/>
<path d="M299.858 116.014H311.033C311.33 116.014 311.572 115.773 311.572 115.475C311.572 115.177 311.33 114.935 311.033 114.935H299.858C299.56 114.935 299.318 115.177 299.318 115.475C299.318 115.773 299.56 116.014 299.858 116.014Z" fill="#61A3C5"/>
<path d="M325.672 122.148H343.271C343.569 122.148 343.811 121.906 343.811 121.608C343.811 121.311 343.569 121.069 343.271 121.069H325.672C325.374 121.069 325.132 121.311 325.132 121.608C325.132 121.906 325.374 122.148 325.672 122.148Z" fill="#61A3C5"/>
<path d="M299.858 122.148H321.725C322.023 122.148 322.265 121.906 322.265 121.608C322.265 121.311 322.023 121.069 321.725 121.069H299.858C299.56 121.069 299.318 121.311 299.318 121.608C299.318 121.906 299.56 122.148 299.858 122.148Z" fill="#61A3C5"/>
<path d="M311.129 128.405C311.075 128.619 302.755 139.447 302.703 139.127C302.649 138.808 303.664 127.498 303.664 127.498L311.129 128.405Z" fill="white"/>
<path d="M165.991 189.072H214.143C215.117 189.072 215.907 188.282 215.907 187.308V164.099C215.907 163.125 215.117 162.335 214.143 162.335H165.991C165.018 162.335 164.228 163.125 164.228 164.099V187.308C164.228 188.282 165.016 189.072 165.991 189.072Z" fill="white"/>
<path d="M169.081 169.138H212.174C212.472 169.138 212.714 168.896 212.714 168.598C212.714 168.3 212.472 168.058 212.174 168.058H169.081C168.783 168.058 168.541 168.3 168.541 168.598C168.539 168.896 168.781 169.138 169.081 169.138Z" fill="#61A3C5"/>
<path d="M184.174 175.272H212.174C212.472 175.272 212.714 175.03 212.714 174.732C212.714 174.434 212.472 174.192 212.174 174.192H184.174C183.876 174.192 183.634 174.434 183.634 174.732C183.634 175.03 183.876 175.272 184.174 175.272Z" fill="#61A3C5"/>
<path d="M168.759 175.272H179.933C180.231 175.272 180.473 175.03 180.473 174.732C180.473 174.434 180.231 174.192 179.933 174.192H168.759C168.461 174.192 168.219 174.434 168.219 174.732C168.219 175.03 168.461 175.272 168.759 175.272Z" fill="#61A3C5"/>
<path d="M194.573 181.405H212.172C212.47 181.405 212.712 181.164 212.712 180.866C212.712 180.568 212.47 180.326 212.172 180.326H194.573C194.275 180.326 194.033 180.568 194.033 180.866C194.033 181.164 194.275 181.405 194.573 181.405Z" fill="#61A3C5"/>
<path d="M168.759 181.405H190.626C190.924 181.405 191.166 181.164 191.166 180.866C191.166 180.568 190.924 180.326 190.626 180.326H168.759C168.461 180.326 168.219 180.568 168.219 180.866C168.219 181.164 168.461 181.405 168.759 181.405Z" fill="#61A3C5"/>
<path d="M180.031 187.662C179.977 187.876 171.656 198.704 171.605 198.384C171.551 198.065 172.565 186.756 172.565 186.756L180.031 187.662Z" fill="white"/>
<path d="M368.178 166.927C367.868 166.407 367.19 166.238 366.65 166.515L363.291 168.231C363.185 168.285 363.057 168.266 362.973 168.183C362.848 168.063 362.865 167.857 363.008 167.758L367.591 164.589C368.116 164.226 368.17 163.565 367.712 163.121C367.254 162.676 366.449 162.611 365.925 162.974L361.253 166.206C361.145 166.281 360.998 166.268 360.903 166.178L360.836 166.113C360.726 166.007 360.724 165.832 360.829 165.722L365.214 161.195C365.635 160.759 365.676 160.061 365.268 159.612C364.821 159.12 364.061 159.113 363.606 159.584L359.195 164.14C359.089 164.25 358.915 164.252 358.804 164.146L358.591 163.939C358.491 163.842 358.478 163.686 358.56 163.576L362.075 158.848C362.438 158.362 362.386 157.662 361.924 157.272C361.417 156.842 360.661 156.935 360.273 157.459C360.273 157.459 354.528 164.381 353.541 165.392L352.876 162.168C352.865 161.54 352.349 161.039 351.719 161.048C351.091 161.059 350.59 161.575 350.598 162.205L349.862 169.498C349.869 169.909 350.456 170.481 351.039 170.828C355.495 175.857 356.222 176.595 357.548 177.839L362.367 172.517C363.757 170.982 365.415 169.71 367.261 168.769L367.725 168.531C368.299 168.227 368.517 167.497 368.178 166.927Z" fill="#FE9F73"/>
<path d="M308.858 365.73L293.625 365.939L293.405 351.571L308.58 349.675L308.858 365.73Z" fill="#FE9F73"/>
<path d="M324.511 368.316H293.408V362.057C293.408 362.057 295.67 359.052 299.116 360.587C299.116 360.587 304.215 364.279 308.809 359.868L320.325 364.812C320.323 364.812 324.511 366.188 324.511 368.316Z" fill="#3AA1C9"/>
<path d="M293.405 370.508H325.43C325.667 370.508 325.859 370.316 325.859 370.078V368.748C325.859 368.511 325.667 368.319 325.43 368.319H293.405V370.508Z" fill="#472A31"/>
<path d="M312.215 361.33C311.172 362.96 309.076 366.233 307.744 368.317H305.624C306.814 366.455 309.311 362.556 310.553 360.615L312.215 361.33Z" fill="#D7E4F7"/>
<path d="M311.142 368.317H309.022C309.992 366.803 311.881 363.852 313.217 361.762L314.879 362.476C313.757 364.232 312.2 366.665 311.142 368.317Z" fill="#D7E4F7"/>
<path d="M278.142 365.73L262.908 365.939L262.69 351.571L277.863 349.675L278.142 365.73Z" fill="#FE9F73"/>
<path d="M284.253 241.36C284.759 256.197 286.952 314.239 291.566 352.212C291.87 354.715 293.99 356.604 296.512 356.597C299.303 356.591 303.185 356.256 307.487 354.943C309.567 354.309 311.011 352.417 311.045 350.243L312.921 234.699C312.926 234.419 312.906 234.138 312.863 233.86L312.775 233.29C312.291 230.144 309.027 228.25 306.056 229.39L287.451 236.539C285.465 237.299 284.18 239.233 284.253 241.36Z" fill="#FF424D"/>
<path d="M259.305 238.366C259.305 238.366 258.038 309.735 261.341 353.76C261.497 355.844 263.152 357.491 265.236 357.649C268.185 357.873 272.675 357.839 277.74 356.496C279.456 356.04 280.706 354.557 280.86 352.787L289.692 250.435L295.13 222.017L259.305 238.366Z" fill="#EF3A4C"/>
<path d="M293.794 368.316H262.69V362.057C262.69 362.057 264.953 359.052 268.399 360.587C268.399 360.587 273.498 364.279 278.092 359.868L289.607 364.812C289.605 364.812 293.794 366.188 293.794 368.316Z" fill="#4CB7D8"/>
<path d="M262.69 370.508H294.715C294.953 370.508 295.145 370.316 295.145 370.078V368.748C295.145 368.511 294.953 368.319 294.715 368.319H262.69V370.508Z" fill="#683D46"/>
<path d="M281.499 361.33C280.456 362.96 278.36 366.233 277.028 368.317H274.908C276.097 366.455 278.595 362.556 279.836 360.615L281.499 361.33Z" fill="#D7E4F7"/>
<path d="M280.428 368.317H278.308C279.277 366.803 281.167 363.852 282.503 361.762L284.165 362.476C283.043 364.232 281.486 366.665 280.428 368.317Z" fill="#D7E4F7"/>
<path d="M314.018 256.143L314.193 255.899L313.276 200.822C313.276 200.822 330.184 212.971 335.251 213.204C340.318 213.437 361.27 180.119 361.27 180.119C356.855 169.261 347.557 167.756 347.557 167.756L330.255 188.075L309.985 168.376C307.282 166.618 286.505 166.238 286.505 166.238C286.505 166.238 270.195 165.34 267.494 167.097C264.791 168.855 247.511 198.132 245.968 211.263C244.424 224.396 245.968 232.901 255.331 234.451L258.738 234.529L258.999 256.141C259.001 256.143 277.87 260.694 314.018 256.143Z" fill="#61A3C5"/>
<path d="M347.561 167.756L330.259 188.075L309.989 168.376C308.975 167.715 305.408 167.249 301.35 166.925L289.169 198.013L270.777 166.238C264.335 166.301 262.671 167.922 261.272 168.833C258.569 170.591 247.515 198.132 245.97 211.263C244.426 224.396 245.97 232.901 255.333 234.451L258.74 234.529L257.766 256.141C257.766 256.141 277.872 260.69 314.018 256.141L314.193 255.897L313.275 200.82C313.275 200.82 330.184 212.969 335.251 213.202C340.318 213.435 361.27 180.117 361.27 180.117C356.857 169.261 347.561 167.756 347.561 167.756Z" fill="#FECC86"/>
<path d="M263.923 215.024L263.537 214.536L267.304 211.125L268.742 192.419L269.335 192.471L267.878 211.442L263.923 215.024Z" fill="#21111D"/>
<path d="M258.731 234.851L255.285 234.769C250.689 234.006 247.744 231.569 246.279 227.311C245.007 223.619 244.815 218.507 245.672 211.224L246.264 211.304C244.517 226.147 247.153 232.765 255.357 234.134L258.742 234.212L258.731 234.851Z" fill="#21111D"/>
<path d="M330.467 193.511L329.973 188.23L310.344 169.155C308.906 167.756 306.108 167.739 306.08 167.739V167.1C306.207 167.1 309.135 167.117 310.743 168.682L330.543 187.924L331.061 193.449L330.467 193.511Z" fill="#21111D"/>
<path d="M330.48 188.291L330.04 187.859L347.451 167.411L347.611 167.439C347.704 167.454 356.907 169.179 361.547 179.983L361.005 180.251C356.832 170.533 348.88 168.378 347.671 168.104L330.48 188.291Z" fill="#21111D"/>
<path d="M291.423 258.361C291.246 258.361 291.071 258.361 290.901 258.358L290.907 257.719C298.368 257.804 311.674 256.124 313.718 255.86L312.978 195.526L313.574 195.517L314.321 256.426L314.055 256.461C313.908 256.48 299.61 258.361 291.423 258.361Z" fill="#21111D"/>
<path d="M280.842 178.189C277.837 176.183 275.655 173.074 274.698 169.44L275.273 169.267C276.188 172.75 278.278 175.725 281.158 177.647L280.842 178.189Z" fill="#21111D"/>
<path d="M281.695 143.279C281.695 143.279 286.212 141.357 290.223 142.737C292.546 143.536 294.087 145.742 294.087 148.199V150.6L281.728 145.321C281.728 145.321 279.772 146.245 279.929 145.965C280.085 145.684 281.695 143.279 281.695 143.279Z" fill="#FE9F73"/>
<path d="M294.085 147.927V158.053C294.085 158.053 294.236 161.672 291.069 162.123L291.661 166.951C291.881 168.745 290.808 170.463 289.085 171.01C288.243 171.277 287.237 171.472 286.095 171.472C282.477 171.472 280.517 168.758 280.217 167.402C279.914 166.046 280.819 159.562 280.819 159.562L280.709 156.378L281.121 144.035L294.085 147.927Z" fill="#FE9F73"/>
<path d="M285.351 152.703C285.314 152.703 285.275 152.69 285.247 152.66C285.186 152.602 285.184 152.507 285.243 152.446C285.264 152.425 287.337 150.304 289.232 151.831C289.297 151.883 289.308 151.978 289.256 152.042C289.204 152.107 289.109 152.118 289.044 152.066C287.365 150.715 285.538 152.576 285.463 152.656C285.43 152.688 285.392 152.703 285.351 152.703Z" fill="#21111D"/>
<path d="M291.566 151.798C291.523 151.798 291.482 151.781 291.452 151.747C291.398 151.684 291.404 151.589 291.467 151.535C291.527 151.483 292.965 150.253 293.874 151.032C293.937 151.086 293.945 151.181 293.891 151.244C293.837 151.306 293.742 151.315 293.68 151.261C292.967 150.65 291.678 151.751 291.665 151.764C291.635 151.786 291.601 151.798 291.566 151.798Z" fill="#21111D"/>
<path d="M288.398 153.312C288.398 153.562 288.196 153.763 287.947 153.763C287.697 153.763 287.496 153.56 287.496 153.312C287.496 153.062 287.699 152.861 287.947 152.861C288.198 152.861 288.398 153.062 288.398 153.312Z" fill="black"/>
<path d="M292.755 153.312C293.005 153.312 293.207 153.11 293.207 152.861C293.207 152.612 293.005 152.41 292.755 152.41C292.506 152.41 292.304 152.612 292.304 152.861C292.304 153.11 292.506 153.312 292.755 153.312Z" fill="black"/>
<path d="M281.695 143.121C281.695 143.121 277.866 142.938 276.894 146.289C275.923 149.639 277.578 151.41 277.611 152.41C277.645 153.409 276.967 160.143 281.693 159.64L282.969 148.517L281.324 144.089L281.695 143.121Z" fill="#FECC86"/>
<path d="M284.664 153.154C284.664 154.653 283.448 155.868 281.95 155.868C280.452 155.868 279.236 154.653 279.236 153.154C279.236 151.656 280.452 150.44 281.95 150.44C283.448 150.44 284.664 151.656 284.664 153.154Z" fill="#FE9F73"/>
<path d="M281.749 154.819C281.186 154.819 280.808 154.396 280.685 153.973C280.538 153.472 280.707 152.986 281.113 152.733C281.713 152.36 282.259 152.6 282.537 152.783C282.421 152.474 282.237 152.25 281.989 152.116C281.454 151.822 280.791 152.036 280.784 152.038C280.746 152.051 280.702 152.03 280.689 151.991C280.676 151.952 280.698 151.909 280.737 151.896C280.767 151.885 281.467 151.658 282.06 151.984C282.404 152.172 282.635 152.505 282.753 152.973L282.818 153.236L282.626 153.046C282.598 153.018 281.955 152.392 281.19 152.865C280.767 153.126 280.73 153.606 280.828 153.934C280.927 154.275 281.229 154.672 281.747 154.672C281.752 154.672 281.758 154.672 281.762 154.672C281.803 154.672 281.838 154.705 281.838 154.746C281.838 154.787 281.806 154.821 281.765 154.821C281.76 154.819 281.756 154.819 281.749 154.819Z" fill="#F07162"/>
<path d="M283.731 159.051C283.731 159.051 283.943 165.107 291.508 165.686L291.072 162.125C291.072 162.125 286.167 163.112 283.731 159.051Z" fill="#F07162"/>
<path d="M289.994 156.363C289.962 156.363 289.934 156.343 289.923 156.311C289.91 156.272 289.931 156.229 289.97 156.216L291.481 155.717L291.004 152.161C290.998 152.12 291.028 152.081 291.069 152.077C291.11 152.071 291.149 152.101 291.153 152.142L291.648 155.823L290.018 156.363C290.011 156.363 290.003 156.363 289.994 156.363Z" fill="#F07162"/>
<path d="M280.708 160.404L281.233 155.3L282.5 155.441V160.551L280.708 160.404Z" fill="#FE9F73"/>
<path d="M282.403 143.02C282.403 143.02 281.516 145.138 282.971 148.672C284.426 152.207 279.236 147.355 279.236 147.355C279.236 147.355 279.597 142.182 282.403 143.02Z" fill="#FECC86"/>
<path d="M282.973 148.672C282.973 148.672 294.497 147.99 295.208 145.289C295.918 142.59 293.208 142.519 293.208 142.519C293.208 142.519 293.716 138.682 290.236 139.82C286.756 140.958 280.305 140.809 278.491 144.034C276.676 147.26 282.973 148.672 282.973 148.672Z" fill="#FECC86"/>
<path d="M282.734 150.6L283.23 152.703L283.731 152.075C283.731 152.075 284.716 149.054 284.036 147.606C283.356 146.157 280.633 148.24 280.633 148.24L282.734 150.6Z" fill="#FECC86"/>
<path d="M280.238 164.781L287.14 170.016L291.507 165.685L294.42 166.504L291.507 174.265L287.334 171.705L283.029 174.546L277.244 166.011L280.238 164.781Z" fill="#EDFCFB"/>
<path d="M291.989 157.634C291.941 157.621 288.837 157.352 288.837 157.352C288.837 157.352 289.146 158.662 290.298 158.766C291.453 158.869 291.989 157.634 291.989 157.634Z" fill="#FBFDFC"/>
<path d="M307.997 208.096H307.924H300.271L302.207 230.882H307.924H307.997H313.921L315.651 208.096H307.997Z" fill="#49263E"/>
<path d="M313.608 204.099H307.999H307.926H302.317C301.661 204.099 301.127 204.637 301.127 205.298H307.926H307.999H314.797C314.797 204.635 314.264 204.099 313.608 204.099Z" fill="#CE1D37"/>
<path d="M315.48 205.913C315.404 205.554 315.091 205.297 314.728 205.297H307.999H307.926H301.196C300.834 205.297 300.519 205.554 300.445 205.913L299.806 208.959C299.705 209.441 300.069 209.894 300.557 209.894H307.926H307.999H315.367C315.855 209.894 316.22 209.441 316.119 208.959L315.48 205.913Z" fill="#EF3A4C"/>
<path d="M300.65 215.093L301.151 224.356H307.913H308.008H314.77L315.27 215.093H308.008H307.913H300.65Z" fill="#EF3A4C"/>
<path d="M314.77 224.515H300.998L300.488 215.1C300.484 215.011 300.551 214.936 300.642 214.929C300.73 214.925 300.806 214.992 300.81 215.08L301.302 224.191H314.77C314.858 224.191 314.931 224.263 314.931 224.353C314.931 224.444 314.86 224.515 314.77 224.515Z" fill="#21111D"/>
<path d="M311.587 212.848C311.561 212.848 311.533 212.841 311.507 212.826C311.429 212.783 311.403 212.684 311.447 212.606L312.761 210.285C312.805 210.207 312.904 210.181 312.982 210.225C313.059 210.268 313.085 210.367 313.042 210.445L311.727 212.766C311.697 212.82 311.643 212.848 311.587 212.848Z" fill="#21111D"/>
<path d="M311.807 214.18C311.779 214.18 311.751 214.173 311.727 214.158C311.649 214.113 311.623 214.016 311.669 213.938L312.858 211.896C312.904 211.818 313.001 211.792 313.079 211.837C313.156 211.883 313.182 211.98 313.137 212.057L311.947 214.1C311.917 214.152 311.863 214.18 311.807 214.18Z" fill="#21111D"/>
<path d="M310.372 221.79C313.099 219.217 310.242 218.783 310.242 218.783C311.572 217.241 311.264 216.52 310.776 216.19C310.417 215.948 309.968 215.92 309.573 216.084C308.319 216.607 304.498 218.213 302.162 219.368C300.502 219.243 301.03 216.244 301.773 214.707C302.155 213.914 302.181 212.608 300.381 213.925C298.908 215 296.695 218.543 296.695 218.543L287.442 217.591L288.822 231.251C288.822 231.251 299.383 231.094 300.974 231.081C302.565 231.068 307.896 229.125 309.504 227.624C312.425 224.9 310.588 224.761 310.588 224.761C313.375 221.629 310.372 221.79 310.372 221.79Z" fill="#FE9F73"/>
<path d="M306.903 221.039C306.823 221.046 306.743 220.998 306.711 220.914C306.67 220.81 306.717 220.689 306.814 220.646C308.183 220.042 310.113 218.63 310.132 218.617C310.219 218.552 310.34 218.578 310.398 218.671C310.458 218.763 310.435 218.891 310.348 218.956C310.268 219.014 308.366 220.404 306.959 221.026C306.942 221.033 306.922 221.037 306.903 221.039Z" fill="#F07162"/>
<path d="M307.09 223.628C307 223.636 306.915 223.574 306.892 223.477C306.864 223.367 306.924 223.254 307.028 223.226C308.768 222.725 310.249 221.635 310.262 221.624C310.348 221.559 310.469 221.583 310.527 221.676C310.588 221.769 310.566 221.896 310.48 221.961C310.417 222.006 308.934 223.103 307.125 223.624C307.114 223.626 307.103 223.628 307.09 223.628Z" fill="#F07162"/>
<path d="M307.732 226.545C307.643 226.551 307.559 226.493 307.533 226.4C307.503 226.292 307.561 226.178 307.66 226.145C309.152 225.666 310.458 224.612 310.471 224.602C310.555 224.533 310.676 224.552 310.739 224.64C310.804 224.731 310.786 224.859 310.702 224.928C310.646 224.973 309.327 226.037 307.768 226.538C307.757 226.54 307.744 226.543 307.732 226.545Z" fill="#F07162"/>
<path d="M282.123 212.28L291.432 212.919C291.432 212.919 293.314 219.28 291.052 232.173C290.832 233.426 290.37 235.565 290.37 235.565C290.37 235.565 280.916 236.373 279.433 233.082C278.5 231.016 280.538 222.093 280.538 222.093L282.123 212.28Z" fill="#FECC86"/>
<path d="M290.601 235.893L258.731 234.851L258.748 234.212L290.139 235.237C290.588 233.246 293.461 219.856 291.22 213.226L267.572 211.602L267.61 210.963L291.641 212.612L291.71 212.802C294.32 220.052 290.81 235.01 290.659 235.643L290.601 235.893Z" fill="#21111D"/>
<path d="M300.65 212.688L300.92 215.093H302.731L302.47 212.511L300.65 212.688Z" fill="#49263E"/>
<path d="M300.92 215.093L301.239 219.491C301.239 219.491 301.922 219.709 303.962 218.52C306.002 217.33 302.61 215.093 302.61 215.093H300.92Z" fill="#EF3A4C"/>
<path d="M369.577 133.274C369.577 133.274 373.193 135.139 371.384 142.435L370.018 141.729L370.48 137.853L369.577 133.274Z" fill="black"/>
<path d="M356.909 137.799V148.491C356.909 148.491 356.76 152.105 359.902 152.556L359.314 157.377C359.096 159.169 360.161 160.886 361.873 161.43C362.708 161.696 363.708 161.892 364.839 161.892C368.429 161.892 370.374 159.182 370.674 157.826C370.974 156.471 370.076 149.996 370.076 149.996L370.186 146.813L369.778 134.485L356.909 137.799Z" fill="#FE9F73"/>
<path d="M365.579 143.145C365.616 143.145 365.655 143.132 365.683 143.104C365.743 143.046 365.745 142.951 365.687 142.89C365.665 142.869 363.608 140.75 361.728 142.275C361.663 142.327 361.652 142.422 361.706 142.486C361.758 142.551 361.853 142.562 361.915 142.51C363.582 141.159 365.395 143.02 365.471 143.1C365.501 143.13 365.54 143.145 365.579 143.145Z" fill="black"/>
<path d="M359.411 142.242C359.452 142.242 359.495 142.225 359.523 142.191C359.577 142.128 359.571 142.033 359.508 141.979C359.448 141.927 358.021 140.699 357.118 141.476C357.056 141.53 357.049 141.625 357.101 141.688C357.155 141.75 357.25 141.759 357.313 141.705C358.019 141.094 359.299 142.195 359.312 142.206C359.342 142.23 359.377 142.242 359.411 142.242Z" fill="black"/>
<path d="M362.555 143.754C362.555 144.004 362.755 144.205 363.004 144.205C363.252 144.205 363.453 144.002 363.453 143.754C363.453 143.503 363.252 143.303 363.004 143.303C362.755 143.303 362.555 143.506 362.555 143.754Z" fill="black"/>
<path d="M357.784 143.303C357.784 143.553 357.984 143.754 358.233 143.754C358.481 143.754 358.682 143.551 358.682 143.303C358.682 143.052 358.481 142.851 358.233 142.851C357.984 142.851 357.784 143.052 357.784 143.303Z" fill="black"/>
<path d="M367.792 143.911C367.792 145.408 368.999 146.621 370.486 146.621C371.974 146.621 373.181 145.408 373.181 143.911C373.181 142.415 371.974 141.202 370.486 141.202C368.999 141.202 367.792 142.413 367.792 143.911Z" fill="#FE9F73"/>
<path d="M370.683 145.572C371.242 145.572 371.615 145.149 371.739 144.725C371.883 144.225 371.717 143.739 371.313 143.486C370.717 143.113 370.175 143.352 369.899 143.536C370.016 143.229 370.197 143.005 370.443 142.869C370.974 142.575 371.633 142.789 371.639 142.791C371.678 142.804 371.721 142.782 371.734 142.743C371.747 142.705 371.726 142.661 371.687 142.648C371.656 142.638 370.961 142.411 370.372 142.737C370.033 142.925 369.802 143.257 369.685 143.724L369.621 143.985L369.811 143.795C369.837 143.767 370.478 143.141 371.236 143.613C371.654 143.875 371.691 144.352 371.596 144.682C371.497 145.023 371.199 145.421 370.685 145.421C370.681 145.421 370.674 145.421 370.67 145.421C370.629 145.421 370.596 145.453 370.594 145.494C370.594 145.535 370.627 145.57 370.668 145.57C370.672 145.572 370.678 145.572 370.683 145.572Z" fill="#F07162"/>
<path d="M356.389 146.789C356.389 146.789 355.411 154.029 360.188 154.288C367.023 154.655 367.686 150.73 368.092 147.517L368.161 140.887L367.941 138.963C367.457 139.513 367.162 140.202 367.097 140.934C366.954 142.523 366.605 146.807 366.212 146.997C365.655 147.264 357.453 146.092 356.389 146.789Z" fill="black"/>
<path d="M360.97 146.8C361.002 146.8 361.03 146.781 361.041 146.748C361.054 146.71 361.033 146.666 360.994 146.653L359.493 146.155L359.966 142.603C359.973 142.562 359.942 142.523 359.901 142.519C359.86 142.512 359.824 142.543 359.817 142.584L359.327 146.26L360.944 146.798C360.955 146.8 360.963 146.8 360.97 146.8Z" fill="#F07162"/>
<path d="M362.131 148.268C362.086 148.26 359.169 148.191 359.169 148.191C359.169 148.191 359.536 149.404 360.62 149.432C361.704 149.46 362.131 148.268 362.131 148.268Z" fill="#FBFDFC"/>
<path d="M358.997 157.388L359.469 154.659C359.469 154.659 367.537 154.45 370.737 153.668L371.175 157.481C371.175 157.481 364.014 160.78 358.997 157.388Z" fill="#CEE4EF"/>
<path d="M367.954 139.086L369.305 137.853L370.704 141.217C370.704 141.217 368.975 141.502 368.945 143.303C368.915 145.101 369.886 147.91 366.771 151.947C363.655 155.983 367.021 145.924 367.051 145.572C367.084 145.222 367.954 139.086 367.954 139.086Z" fill="black"/>
<path d="M369.577 133.274C368.135 131.842 363.131 131.026 359.562 133.177V133.172C355.497 135.161 356.775 139.209 356.909 139.33L356.961 139.289C356.941 139.382 356.922 139.477 356.909 139.57C356.909 139.57 357.08 139.297 357.444 138.92L359.042 137.695C359.938 137.19 361.138 136.756 362.695 136.655C364.238 136.553 365.586 136.64 366.693 136.981C366.987 137.898 367.224 139.719 366.881 143.303C366.356 148.769 368.744 142.139 369.614 139.598C369.8 140.073 369.936 140.606 370.003 141.217C370 141.217 372.468 136.141 369.577 133.274Z" fill="black"/>
<path d="M356.909 140.802C356.909 140.802 356.803 138.609 356.907 138.127C357.01 137.646 361.896 136.266 364.571 136.633C367.246 137 362.06 139.945 362.002 139.945C361.944 139.947 356.909 140.802 356.909 140.802Z" fill="#FE9F73"/>
<path d="M366.182 137.197L368.766 134.792L366.333 138.309L366.182 137.197Z" fill="#FE9F73"/>
<path d="M366.182 132.462C366.182 132.462 365.655 127.276 368.541 128.405C371.426 129.532 371.922 131.922 369.308 133.5C366.693 135.077 366.182 132.462 366.182 132.462Z" fill="black"/>
<path d="M374.364 366.242L387.382 366.421L387.57 354.14L374.601 352.521L374.364 366.242Z" fill="#FE9F73"/>
<path d="M360.985 368.453H387.567V363.102C387.567 363.102 385.633 360.535 382.69 361.846C382.69 361.846 378.332 365.002 374.407 361.231L364.564 365.456C364.564 365.456 360.985 366.632 360.985 368.453Z" fill="#4C222E"/>
<path d="M387.57 370.325H360.234C360.011 370.325 359.832 370.145 359.832 369.923V368.854C359.832 368.632 360.011 368.453 360.234 368.453H387.57V370.325Z" fill="#8CD2F9"/>
<path d="M344.895 366.242L357.913 366.421L358.101 354.14L345.132 352.521L344.895 366.242Z" fill="#FE9F73"/>
<path d="M331.516 368.453H358.099V363.102C358.099 363.102 356.164 360.535 353.222 361.846C353.222 361.846 348.863 365.002 344.938 361.231L335.096 365.456C335.096 365.456 331.516 366.632 331.516 368.453Z" fill="#4C222E"/>
<path d="M358.101 370.325H330.765C330.542 370.325 330.363 370.145 330.363 369.923V368.854C330.363 368.632 330.542 368.453 330.765 368.453H358.101V370.325Z" fill="#8CD2F9"/>
<path d="M344.537 255.908C346.525 258.464 347.041 255.944 347.041 255.944C348.25 257.208 348.863 256.968 349.165 256.549C349.385 256.242 349.433 255.845 349.318 255.485C348.954 254.342 347.827 250.86 346.993 248.725C347.188 247.254 349.649 247.876 350.884 248.617C351.52 248.997 352.604 249.087 351.609 247.416C350.795 246.052 347.973 243.903 347.973 243.903L349.267 235.719L337.848 236.252C337.848 236.252 337.406 245.657 337.33 247.073C337.255 248.489 338.578 253.33 339.737 254.839C341.84 257.577 342.056 255.949 342.056 255.949C344.508 258.589 344.537 255.908 344.537 255.908Z" fill="#FE9F73"/>
<path d="M345.348 252.859C345.346 252.788 345.391 252.719 345.463 252.695C345.551 252.665 345.648 252.712 345.679 252.801C346.106 254.051 347.175 255.839 347.185 255.856C347.233 255.936 347.207 256.042 347.127 256.089C347.045 256.137 346.941 256.111 346.894 256.031C346.849 255.955 345.797 254.194 345.359 252.911C345.353 252.894 345.348 252.877 345.348 252.859Z" fill="#F07162"/>
<path d="M343.189 252.896C343.187 252.816 343.243 252.743 343.325 252.725C343.418 252.706 343.506 252.766 343.526 252.859C343.848 254.433 344.672 255.804 344.681 255.819C344.731 255.899 344.705 256.005 344.625 256.055C344.545 256.104 344.439 256.078 344.389 255.999C344.355 255.94 343.526 254.565 343.191 252.931C343.189 252.918 343.189 252.907 343.189 252.896Z" fill="#F07162"/>
<path d="M340.732 253.319C340.73 253.241 340.784 253.168 340.864 253.151C340.955 253.129 341.048 253.185 341.069 253.278C341.387 254.63 342.19 255.845 342.198 255.858C342.25 255.936 342.229 256.042 342.151 256.096C342.073 256.148 341.967 256.126 341.913 256.048C341.879 255.996 341.067 254.768 340.735 253.358C340.735 253.343 340.732 253.33 340.732 253.319Z" fill="#F07162"/>
<path d="M336.794 239.782L336.997 243.761C336.997 243.761 339.072 245.147 342.887 245.043L341.928 239.782H336.794Z" fill="#E2F2F1"/>
<path d="M367.902 227.67C367.902 227.67 366.175 309.12 360.229 356.127C360.229 356.127 352.311 358.618 342.352 353.961L341.929 233.914L340.491 215.929L367.902 227.67Z" fill="#3AAAA4"/>
<path d="M388.802 228.458C388.802 228.458 392.284 308.751 388.387 356.064C388.387 356.064 380.989 360.725 370.842 356.69L358.573 241.33L353.364 210.464L388.802 228.458Z" fill="#7FC6A6"/>
<path d="M378.342 358.51C383.938 358.51 388.444 356.34 388.509 356.31L388.632 356.25L388.657 356.114C391.991 338.066 389.864 249.133 389.843 248.237C389.838 248.088 389.717 247.969 389.569 247.969C389.566 247.969 389.564 247.969 389.562 247.969C389.411 247.973 389.292 248.099 389.294 248.25C389.316 249.144 391.432 337.567 388.144 355.874C387.032 356.379 378.664 359.942 370.957 356.44C370.821 356.377 370.657 356.437 370.594 356.576C370.531 356.714 370.592 356.876 370.73 356.938C373.29 358.102 375.92 358.51 378.342 358.51Z" fill="black"/>
<path d="M354.528 357.014C356.333 357.014 358.267 356.837 360.288 356.396C360.435 356.364 360.53 356.217 360.497 356.07C360.465 355.921 360.316 355.831 360.171 355.861C351.076 357.849 343.72 354.356 342.626 353.797L342.205 245.039C342.205 244.888 342.082 244.767 341.931 244.767C341.78 244.767 341.657 244.89 341.659 245.041L342.082 354.125L342.222 354.203C342.283 354.237 347.373 357.014 354.528 357.014Z" fill="black"/>
<path d="M345.625 158.643C345.625 158.643 339.128 161.294 338.045 166.437C336.961 171.58 334.146 233.672 336.095 239.782H345.625V158.643V158.643Z" fill="#4C222E"/>
<path d="M392.162 194.431L392.673 234.192C392.673 234.192 361.862 242.969 341.931 232.504C341.931 232.504 345.417 162.615 346.043 159.536C346.782 155.909 366.663 155.613 374.96 156.503C374.96 156.503 387.816 156.181 394.69 159.977L392.162 194.431Z" fill="#E2F2F1"/>
<path d="M392.671 183.811L392.021 244.765C392.021 244.765 376.268 250.819 368.308 247.634C368.308 247.634 368.356 158.792 371.605 156.082C372.006 156.093 380.182 156.25 386.02 156.982C391.86 157.714 392.671 183.811 392.671 183.811Z" fill="#4C222E"/>
<path d="M358.422 156.082C358.422 156.082 356.777 235.788 355.154 247.634C355.154 247.634 348.53 248.09 340.084 245.05C340.084 245.05 341.604 161.901 343.785 159.679C345.963 157.459 358.422 156.082 358.422 156.082Z" fill="#4C222E"/>
<path d="M370.557 156.192C370.557 156.192 360.249 155.948 358.521 156.274C358.521 156.274 359.879 160.335 360.102 160.497C360.324 160.659 367.002 162.019 367.002 162.019C367.002 162.019 369.279 160.679 369.381 160.223C369.482 159.765 370.557 156.192 370.557 156.192Z" fill="#E2F2F1"/>
<path d="M392.671 203.631C392.822 203.631 392.945 203.508 392.945 203.357V190.396C392.945 190.245 392.822 190.122 392.671 190.122C392.52 190.122 392.397 190.245 392.397 190.396V203.357C392.397 203.508 392.52 203.631 392.671 203.631Z" fill="black"/>
<path d="M368.31 247.908C368.461 247.908 368.584 247.785 368.584 247.634C368.448 191.071 369.996 171.413 370.011 171.221C370.024 171.07 369.912 170.938 369.761 170.925C369.614 170.917 369.478 171.025 369.465 171.176C369.45 171.368 367.9 191.041 368.036 247.634C368.036 247.785 368.159 247.908 368.31 247.908Z" fill="black"/>
<path d="M340.085 245.324C340.087 245.324 340.089 245.324 340.091 245.324C340.243 245.32 340.363 245.195 340.359 245.044C339.824 220.277 344.178 166.72 344.221 166.182C344.234 166.031 344.122 165.899 343.971 165.886C343.811 165.875 343.688 165.986 343.675 166.137C343.632 166.674 339.275 220.26 339.811 245.054C339.813 245.205 339.936 245.324 340.085 245.324Z" fill="black"/>
<path d="M358.066 172.068C358.215 172.068 358.336 171.949 358.34 171.8L358.703 155.784L358.401 155.808C357.844 155.851 344.692 156.928 340.808 161.445C340.709 161.56 340.722 161.732 340.836 161.832C340.951 161.931 341.123 161.918 341.223 161.803C344.644 157.824 356.125 156.574 358.142 156.382L357.794 171.789C357.792 171.94 357.911 172.065 358.062 172.07C358.064 172.068 358.064 172.068 358.066 172.068Z" fill="black"/>
<path d="M413.64 213.375C411.965 204.879 415.633 199.509 418.375 196.679C419.321 199.395 419.996 202.135 420.283 204.866C420.666 208.532 418.695 213.381 415.666 218.442C414.778 217.183 414.066 215.529 413.64 213.375Z" fill="#FEC786"/>
<path d="M391.827 163.602C391.771 163.602 391.715 163.576 391.678 163.529C389.88 161.132 386.944 160.158 386.913 160.147C386.816 160.115 386.762 160.011 386.795 159.912C386.827 159.815 386.931 159.761 387.028 159.793C387.153 159.834 390.104 160.81 391.976 163.304C392.039 163.386 392.021 163.503 391.939 163.565C391.905 163.591 391.866 163.602 391.827 163.602Z" fill="#21111D"/>
<path d="M391.475 165.325C391.419 165.325 391.363 165.299 391.326 165.251C389.528 162.855 386.591 161.881 386.561 161.87C386.464 161.838 386.41 161.734 386.443 161.635C386.475 161.538 386.579 161.484 386.676 161.516C386.801 161.557 389.752 162.533 391.624 165.027C391.686 165.109 391.669 165.226 391.587 165.288C391.555 165.314 391.514 165.325 391.475 165.325Z" fill="#21111D"/>
<path d="M383.91 357.85C384.059 357.85 384.182 357.729 384.185 357.58L384.666 325.369C384.668 325.218 384.547 325.092 384.396 325.09C384.394 325.09 384.394 325.09 384.392 325.09C384.243 325.09 384.12 325.211 384.118 325.36L383.636 357.571C383.634 357.722 383.755 357.847 383.906 357.85C383.908 357.85 383.908 357.85 383.91 357.85Z" fill="black"/>
<path d="M354.197 357.016C354.342 357.016 354.463 356.904 354.472 356.757L356.277 325.377C356.285 325.226 356.171 325.097 356.017 325.088C355.866 325.073 355.737 325.194 355.728 325.347L353.923 356.727C353.915 356.878 354.029 357.008 354.182 357.016C354.187 357.016 354.191 357.016 354.197 357.016Z" fill="black"/>
<path d="M413.727 220.82L364.405 220.651L364.636 190.392L413.958 190.563L413.727 220.82Z" fill="#8CD2F9"/>
<path d="M376.761 220.692L364.405 220.651L364.636 190.392L376.992 190.435L376.761 220.692Z" fill="#3AA1C9"/>
<path d="M381.6 197.22L371.788 197.188L371.805 194.889L381.62 194.921L381.6 197.22Z" fill="#D7E4F7"/>
<path d="M381.466 214.709L371.654 214.674L371.672 212.377L381.486 212.409L381.466 214.709Z" fill="#D7E4F7"/>
<g opacity="0.5">
<g opacity="0.5">
<g opacity="0.5">
<path opacity="0.5" d="M411.285 204.691L393.619 204.628L393.623 204.136L411.289 204.196L411.285 204.691Z" fill="#D7E4F7"/>
</g>
</g>
</g>
<g opacity="0.5">
<g opacity="0.5">
<g opacity="0.5">
<path opacity="0.5" d="M411.272 206.459L393.605 206.399L393.61 205.906L411.274 205.967L411.272 206.459Z" fill="#D7E4F7"/>
</g>
</g>
</g>
<path d="M394.303 221.026C394.303 221.026 394.301 221.026 394.303 221.026L364.13 220.923L364.364 190.391C364.366 190.24 364.487 190.119 364.638 190.119H364.64C364.791 190.122 364.912 190.245 364.912 190.396L364.683 220.378L394.305 220.48C394.456 220.48 394.577 220.603 394.577 220.754C394.575 220.903 394.452 221.026 394.303 221.026Z" fill="black"/>
<path d="M413.789 212.794C413.636 212.792 413.515 212.668 413.515 212.517L413.681 190.832L382.632 190.726C382.481 190.726 382.36 190.603 382.36 190.452C382.36 190.301 382.483 190.18 382.634 190.18L414.232 190.288L414.061 212.522C414.061 212.673 413.94 212.794 413.789 212.794Z" fill="black"/>
<path d="M390.9 202.886C390.827 202.886 390.751 202.856 390.697 202.797L388.551 200.435C388.45 200.323 388.459 200.15 388.569 200.049C388.681 199.947 388.854 199.956 388.955 200.066L391.101 202.428C391.203 202.54 391.194 202.713 391.084 202.815C391.032 202.864 390.967 202.886 390.9 202.886Z" fill="black"/>
<path d="M390.652 204.848C390.583 204.848 390.512 204.822 390.458 204.768L388.31 202.609C388.204 202.502 388.204 202.329 388.31 202.223C388.418 202.117 388.59 202.117 388.696 202.223L390.844 204.382C390.95 204.49 390.95 204.663 390.844 204.768C390.793 204.822 390.721 204.848 390.652 204.848Z" fill="black"/>
<path d="M376.998 251.624C373.787 252.052 375.186 249.895 375.186 249.895C373.44 249.947 373.17 249.346 373.248 248.837C373.304 248.463 373.552 248.146 373.885 247.971C374.945 247.414 378.189 245.721 380.281 244.782C381.173 243.597 378.982 242.314 377.585 241.975C376.864 241.8 376.028 241.103 377.909 240.611C379.446 240.209 382.963 240.656 382.963 240.656L387.779 233.916L395.545 242.306C395.545 242.306 389.264 249.32 388.325 250.383C387.386 251.447 383.047 253.967 381.164 254.23C377.745 254.705 378.733 253.395 378.733 253.395C375.137 253.554 376.998 251.624 376.998 251.624Z" fill="#FE9F73"/>
<path d="M378.557 248.88C378.608 248.83 378.624 248.75 378.589 248.681C378.548 248.597 378.444 248.563 378.36 248.606C377.179 249.195 375.163 249.722 375.143 249.729C375.053 249.752 374.999 249.845 375.02 249.936C375.044 250.026 375.137 250.083 375.228 250.059C375.312 250.037 377.298 249.517 378.511 248.912C378.531 248.904 378.546 248.893 378.557 248.88Z" fill="#F07162"/>
<path d="M380.07 250.422C380.128 250.366 380.139 250.275 380.091 250.206C380.039 250.128 379.934 250.107 379.854 250.16C378.519 251.056 376.969 251.456 376.954 251.46C376.864 251.484 376.807 251.577 376.831 251.667C376.855 251.758 376.948 251.814 377.038 251.791C377.103 251.773 378.66 251.374 380.044 250.443C380.054 250.437 380.063 250.428 380.07 250.422Z" fill="#F07162"/>
<path d="M381.525 252.445C381.581 252.389 381.594 252.302 381.549 252.231C381.499 252.151 381.393 252.127 381.313 252.177C380.141 252.917 378.714 253.22 378.699 253.224C378.606 253.243 378.548 253.334 378.567 253.425C378.587 253.518 378.677 253.576 378.768 253.557C378.828 253.544 380.271 253.237 381.495 252.464C381.508 252.462 381.516 252.453 381.525 252.445Z" fill="#F07162"/>
<path d="M380.989 156.684C380.989 156.684 394.381 155.462 401.063 166.536C407.168 176.653 418.822 190.869 420.283 204.866C421.464 216.179 400.234 238.733 394.69 244.124L384.873 233.657C384.873 233.657 400.499 208.871 401.715 205.814C402.82 203.033 379.959 172.873 379.959 172.873L380.989 156.684Z" fill="#4C222E"/>
<path d="M394.452 243.871L392.343 246.227C392.343 246.227 384.478 239.445 383.91 238.551C384.046 238.415 386.276 235.153 386.276 235.153L394.452 243.871Z" fill="#E2F2F1"/>
<path d="M413.642 186.665C413.694 186.665 413.744 186.65 413.791 186.622C413.919 186.54 413.956 186.369 413.873 186.242L399.135 163.447C391.598 155.387 382.371 156.456 382.28 156.468C382.131 156.488 382.023 156.624 382.043 156.775C382.062 156.924 382.203 157.03 382.349 157.013C382.44 157.002 391.384 155.976 398.718 163.805L413.414 186.542C413.463 186.62 413.552 186.665 413.642 186.665Z" fill="black"/>
<path d="M407.056 207.8C407.207 207.8 407.33 207.677 407.33 207.526C407.33 207.374 407.207 207.251 407.056 207.251C405.387 207.251 402.524 205.6 401.958 205.263C401.05 201.552 388.185 183.424 387.632 182.645C387.544 182.522 387.373 182.491 387.25 182.58C387.127 182.668 387.097 182.839 387.185 182.962C387.321 183.154 400.834 202.195 401.447 205.485L401.468 205.604L401.572 205.669C401.712 205.757 405.052 207.8 407.056 207.8Z" fill="black"/>
<path d="M394.69 244.398C394.755 244.398 394.817 244.376 394.869 244.331C394.983 244.232 394.994 244.059 394.895 243.944C392.656 241.375 386.285 234.732 385.221 233.624C390.681 225.236 401.987 205.98 401.989 205.438C401.989 205.287 401.868 205.164 401.717 205.164C401.585 205.164 401.473 205.259 401.449 205.384C401.13 206.232 390.53 224.496 384.647 233.508L384.528 233.691L384.679 233.849C384.752 233.926 392.06 241.524 394.487 244.307C394.536 244.365 394.612 244.398 394.69 244.398Z" fill="black"/>
<path d="M409.351 370.325H413.064L406.365 276.032H398.938L409.351 370.325Z" fill="#FEC786"/>
<path d="M251.266 370.325H247.552L254.251 276.032H261.678L251.266 370.325Z" fill="#FEC786"/>
<path d="M229.327 263.762C229.39 263.16 228.947 262.618 228.349 262.517L224.632 261.88C224.515 261.86 224.424 261.768 224.405 261.651C224.377 261.478 224.513 261.325 224.688 261.331L230.256 261.536C230.892 261.56 231.333 261.064 231.231 260.433C231.13 259.803 230.525 259.267 229.886 259.244L224.209 259.034C224.077 259.03 223.967 258.933 223.945 258.801L223.93 258.708C223.906 258.557 224.008 258.415 224.159 258.391L230.381 257.391C230.979 257.294 231.43 256.759 231.372 256.156C231.309 255.495 230.702 255.033 230.057 255.137L223.796 256.143C223.645 256.167 223.503 256.065 223.479 255.914L223.431 255.621C223.41 255.485 223.492 255.351 223.626 255.312L229.271 253.628C229.852 253.455 230.23 252.866 230.094 252.274C229.945 251.627 229.284 251.249 228.658 251.434C228.658 251.434 219.91 253.539 218.518 253.755L219.914 250.776C220.284 250.266 220.169 249.554 219.66 249.187C219.15 248.818 218.438 248.932 218.071 249.442L213.114 254.841C212.874 255.174 213.002 255.983 213.261 256.612C213.818 263.307 213.958 264.332 214.275 266.124L221.322 264.747C223.356 264.35 225.443 264.326 227.486 264.676L228 264.764C228.645 264.877 229.256 264.423 229.327 263.762Z" fill="#FE9F73"/>
<path d="M189.228 254.915L214.385 251.277C214.385 251.277 217.926 262.251 217.194 268.357C217.194 268.357 193.82 274.668 188.917 274.044C184.014 273.42 179.016 266.403 179.016 266.403C179.016 266.403 178.239 229.833 178.971 230.399C179.705 230.962 189.228 254.915 189.228 254.915Z" fill="#EF3A4C"/>
<path d="M235.789 365.451L216.842 363.912L216.648 359.929L216.462 345.88L236.026 347.866L235.789 365.451Z" fill="#FE9F73"/>
<path d="M184.683 266.58C184.683 266.58 225.551 271.708 231.264 279.031C234.081 282.643 239.819 331.086 237.438 351.238C237.438 351.238 222.84 352.242 215.858 350.552L214.159 301.414L182.777 291.923L166.665 267.167L184.683 266.58Z" fill="#258D8C"/>
<path d="M225.858 351.793C219.932 351.793 215.838 350.822 215.797 350.811L215.599 350.763L213.88 301.077L216.074 302.843L215.737 303.26L214.455 302.228L216.119 350.334C217.028 350.53 220.983 351.312 226.376 351.254L226.38 351.789C226.206 351.793 226.031 351.793 225.858 351.793Z" fill="#21111D"/>
<path d="M222.44 370.324L248.31 370.318C248.543 370.281 248.736 370.24 248.874 370.195C250.534 369.666 250.672 368.697 250.594 368.135C250.56 367.887 250.415 367.667 250.201 367.528L235.91 358.275L231.188 360.365C229.685 361.034 228.084 361.459 226.443 361.617C223.092 361.939 217.717 362.114 216.648 360.032L216.816 368.021C216.819 368.019 216.037 370.387 222.44 370.324Z" fill="#EF3A4C"/>
<path d="M181.326 366.486H165.523V312.423H162.013V366.486H146.62C144.472 366.486 142.729 368.228 142.729 370.374H162.013H165.523H185.214C185.214 368.228 183.474 366.486 181.326 366.486Z" fill="#4C222E"/>
<path d="M118.066 228.766H154.388L173.602 312.423L131.98 308.083L118.066 228.766Z" fill="#FEC786"/>
<path d="M201.264 303.901C201.264 303.901 153.53 303.901 139.286 303.901C136.987 303.901 135.016 302.26 134.599 300L121.933 231.426C121.592 229.585 119.791 228.38 117.948 228.79C116.19 229.179 115.094 230.941 115.42 232.711L129.768 310.396C129.88 310.998 130.147 311.529 130.523 311.961C131.447 313.675 133.258 314.843 135.342 314.843H201.264C204.284 314.843 206.734 312.395 206.734 309.372C206.734 306.352 204.284 303.901 201.264 303.901Z" fill="#F99247"/>
<path d="M139.286 304.169C136.859 304.169 134.778 302.437 134.336 300.05L121.669 231.476C121.518 230.653 121.05 229.947 120.352 229.485C119.655 229.023 118.822 228.87 118.004 229.051C117.861 229.084 117.716 228.993 117.686 228.848C117.654 228.704 117.745 228.561 117.889 228.531C118.85 228.317 119.83 228.499 120.648 229.041C121.466 229.582 122.017 230.414 122.194 231.379L134.86 299.952C135.255 302.085 137.116 303.636 139.286 303.636C139.433 303.636 139.554 303.754 139.554 303.903C139.551 304.05 139.433 304.169 139.286 304.169Z" fill="#21111D"/>
<path d="M185.227 304.424C185.227 304.424 169.565 304.681 158.587 304.305C155.063 304.184 151.926 304.432 150.07 304.02C142.429 302.323 140.547 278.472 149.223 263.857C157.9 249.243 188.256 294.112 188.256 294.112L185.227 304.424Z" fill="#7FC6A6"/>
<path d="M213.422 365.717L197.265 364.847C195.516 364.752 194.133 363.329 194.089 361.578L193.694 345.67L213.26 347.657L213.422 365.717Z" fill="#FE9F73"/>
<path d="M172.088 271.708C172.088 271.708 214.055 276.684 215.165 281.128C216.274 285.571 218.664 331.194 216.283 351.346C216.283 351.346 200.586 352.245 193.604 350.554L191.723 304.201L184.953 304.437L168.535 275.551L172.088 271.708Z" fill="#7FC6A6"/>
<path d="M203.023 351.893C196.087 351.893 193.615 350.848 193.496 350.796L193.343 350.729L191.521 304.102L194.388 305.454L194.159 305.937L192.09 304.961L193.863 350.36C194.612 350.619 198.211 351.657 206.706 351.264L206.73 351.8C205.374 351.865 204.141 351.893 203.023 351.893Z" fill="#21111D"/>
<path d="M196.518 341.838C195.778 338.982 195.566 311.13 195.558 309.947L196.093 309.942C196.095 310.232 196.313 338.913 197.036 341.704L196.518 341.838Z" fill="#21111D"/>
<path d="M173.442 304.923C166.607 304.923 158.414 304.692 149.202 303.999L149.243 303.467C176.687 305.536 195.094 303.489 195.275 303.467L195.336 303.996C195.215 304.012 187.011 304.923 173.442 304.923Z" fill="#21111D"/>
<path d="M199.867 370.324L225.737 370.318C225.97 370.281 226.162 370.24 226.3 370.195C227.96 369.666 228.099 368.697 228.021 368.135C227.986 367.887 227.842 367.667 227.628 367.528L213.336 358.275L208.615 360.365C207.112 361.034 205.51 361.459 203.869 361.617C200.519 361.939 195.091 362.111 194.025 360.03L194.243 368.019C194.243 368.019 193.461 370.387 199.867 370.324Z" fill="#FF424D"/>
<path d="M155.892 288.585C155.892 288.585 165.806 283.863 175.024 276.905C184.243 269.948 189.811 265.552 189.811 265.552C189.811 265.552 188.528 262.72 187.293 260.349L185.124 256.178L179.821 233.033C179.821 233.033 178.163 221.901 163.153 219.251C163.727 219.517 161.926 219.044 161.926 219.044C161.926 219.044 148.334 219.536 143.185 220.249C135.18 221.357 134.359 242.047 134.359 242.047C134.357 255.787 135.983 274.594 140.758 280.72C146.825 288.501 153.82 288.749 155.901 288.63C155.894 288.6 155.892 288.585 155.892 288.585Z" fill="#EF3A4C"/>
<path d="M151.957 218.615C151.957 218.615 142.894 218.297 138.567 220.748C132.11 224.405 134.411 245.354 134.411 245.354C134.411 245.354 139.897 242.362 140.23 241.364C140.562 240.367 151.957 218.615 151.957 218.615Z" fill="#EF3A4C"/>
<path d="M149.632 287.829C150.217 288.052 150.769 288.222 151.277 288.358C154.329 289.168 156.462 288.831 156.551 288.816C156.687 288.794 156.777 288.665 156.756 288.529C156.734 288.393 156.605 288.302 156.469 288.324C156.447 288.328 154.331 288.658 151.376 287.868C148.649 287.141 144.627 285.282 140.951 280.564C136.333 274.642 134.647 256.409 134.606 242.595C134.606 242.457 134.493 242.345 134.355 242.347C134.217 242.347 134.107 242.459 134.107 242.597C134.148 256.491 135.862 274.851 140.558 280.873C143.649 284.835 146.985 286.828 149.632 287.829Z" fill="#21111D"/>
<path d="M157.043 265.017C157.088 265.034 157.138 265.038 157.187 265.025C157.321 264.993 157.405 264.859 157.373 264.725C157.332 264.548 153.204 247.004 151.449 235.965C151.427 235.829 151.298 235.736 151.164 235.757C151.028 235.779 150.935 235.906 150.957 236.042C152.716 247.101 156.846 264.665 156.889 264.84C156.909 264.926 156.969 264.989 157.043 265.017Z" fill="#21111D"/>
<path d="M157.106 228.471C157.298 228.49 157.494 228.507 157.695 228.522C157.809 228.531 157.909 228.445 157.915 228.33C157.924 228.216 157.842 228.119 157.723 228.11C149.135 227.508 147.54 221.218 147.527 221.156C147.505 221.046 147.399 220.968 147.289 220.987C147.179 221.007 147.101 221.106 147.119 221.218C147.129 221.281 148.714 227.603 157.106 228.471Z" fill="#21111D"/>
<path d="M163.012 315.154L137.155 315.109C130.191 315.737 129.362 309.776 129.321 309.45L127.784 301.127C127.758 300.982 127.853 300.842 127.997 300.816C128.142 300.79 128.282 300.885 128.308 301.03L129.85 309.383C129.873 309.621 130.517 315.18 137.119 314.578L137.142 314.576L163.01 314.621C163.157 314.621 163.276 314.742 163.276 314.889C163.278 315.036 163.159 315.154 163.012 315.154Z" fill="#21111D"/>
<path d="M132.06 229.032L119.349 229.013C119.202 229.013 119.083 228.892 119.083 228.745C119.083 228.598 119.202 228.479 119.351 228.479L132.06 228.499C132.207 228.499 132.326 228.617 132.326 228.766C132.326 228.913 132.207 229.032 132.06 229.032Z" fill="#21111D"/>
<path d="M178.995 253.805C177.311 248.129 175.493 241.695 174.86 238.372C174.834 238.236 174.703 238.147 174.569 238.173C174.433 238.199 174.344 238.329 174.37 238.465C175.009 241.82 176.846 248.317 178.539 254.025C178.692 253.952 178.846 253.878 178.995 253.805Z" fill="#21111D"/>
<path d="M174.284 277.639C174.213 277.639 174.144 277.604 174.1 277.542C174.034 277.44 174.059 277.304 174.161 277.237C177.032 275.322 188.258 266.496 189.552 265.477C187.781 260.189 182.79 253.677 181.985 252.648L157.699 264.864L154.491 267.198C154.394 267.269 154.256 267.247 154.185 267.15C154.113 267.053 154.135 266.915 154.232 266.843L157.486 264.481L182.106 252.097L182.218 252.235C182.276 252.309 188.125 259.658 190.018 265.49L190.065 265.637L189.945 265.731C189.819 265.831 177.451 275.575 174.405 277.606C174.368 277.628 174.327 277.639 174.284 277.639Z" fill="#21111D"/>
<path d="M216.849 263.43C216.726 263.43 216.62 263.335 216.609 263.21C216.167 258.261 214.576 252.717 214.248 251.614L189.073 255.126L184.599 244.057C180.405 232.163 176.914 227.27 176.879 227.223C171.309 220.124 162 219.293 161.905 219.284C161.771 219.273 161.674 219.156 161.685 219.023C161.696 218.889 161.812 218.789 161.946 218.802C162.041 218.811 171.562 219.662 177.266 226.931C177.307 226.987 180.832 231.923 185.051 243.886L189.379 254.595L214.591 251.076L214.651 251.272C214.671 251.335 216.596 257.614 217.091 263.164C217.102 263.298 217.004 263.415 216.873 263.426C216.864 263.43 216.858 263.43 216.849 263.43Z" fill="#21111D"/>
<path d="M163.975 200.338L164.255 211.192C164.255 211.192 164.491 214.676 161.451 215.192L162.142 219.832C162.399 221.557 161.408 223.241 159.758 223.809C158.953 224.088 157.988 224.302 156.887 224.33C153.398 224.42 151.44 221.853 151.116 220.551C150.793 219.249 151.503 212.977 151.503 212.977L151.317 209.909L151.406 197.998L163.975 200.338Z" fill="#FE9F73"/>
<path d="M154.299 212.412C154.299 212.412 154.655 218.245 161.963 218.615L161.453 215.192C161.451 215.192 156.747 216.266 154.299 212.412Z" fill="#F07162"/>
<path d="M155.7 206.25C155.663 206.25 155.626 206.239 155.598 206.211C155.54 206.157 155.536 206.064 155.59 206.006C155.609 205.984 157.556 203.888 159.422 205.313C159.486 205.362 159.497 205.453 159.45 205.516C159.4 205.58 159.309 205.591 159.247 205.544C157.593 204.281 155.879 206.122 155.808 206.202C155.775 206.232 155.739 206.248 155.7 206.25Z" fill="black"/>
<path d="M150.65 204.853L153.805 205.425L154.387 205.997C154.387 205.997 153.979 200.744 153.362 199.725C152.745 198.708 150.65 204.853 150.65 204.853Z" fill="black"/>
<path d="M161.669 205.222C161.628 205.222 161.587 205.207 161.557 205.174C161.503 205.116 161.507 205.023 161.566 204.969C161.624 204.918 162.98 203.696 163.876 204.423C163.938 204.473 163.947 204.566 163.897 204.628C163.848 204.691 163.755 204.699 163.692 204.65C162.99 204.08 161.775 205.172 161.762 205.185C161.738 205.207 161.704 205.22 161.669 205.222Z" fill="black"/>
<path d="M158.655 206.759C158.662 207.001 158.472 207.2 158.23 207.206C157.988 207.213 157.789 207.023 157.783 206.781C157.776 206.539 157.966 206.34 158.208 206.334C158.448 206.329 158.649 206.519 158.655 206.759Z" fill="black"/>
<path d="M163.28 206.204C163.286 206.446 163.096 206.645 162.854 206.651C162.612 206.658 162.414 206.468 162.407 206.226C162.401 205.984 162.591 205.785 162.833 205.779C163.072 205.772 163.273 205.962 163.28 206.204Z" fill="black"/>
<path d="M154.257 208.642C155.288 207.629 155.302 205.973 154.29 204.942C153.277 203.911 151.62 203.896 150.59 204.909C149.559 205.922 149.544 207.578 150.557 208.609C151.57 209.64 153.226 209.655 154.257 208.642Z" fill="#FE9F73"/>
<path d="M152.012 208.234C151.468 208.249 151.095 207.85 150.965 207.444C150.812 206.964 150.961 206.492 151.347 206.237C151.917 205.861 152.448 206.079 152.723 206.25C152.602 205.956 152.418 205.744 152.178 205.619C151.656 205.349 151.021 205.572 151.015 205.574C150.978 205.587 150.935 205.567 150.922 205.531C150.909 205.494 150.928 205.451 150.965 205.438C150.993 205.427 151.665 205.192 152.243 205.49C152.578 205.662 152.811 205.978 152.936 206.427L153.005 206.677L152.815 206.498C152.789 206.472 152.15 205.883 151.427 206.36C151.026 206.623 151.002 207.085 151.103 207.401C151.209 207.729 151.509 208.102 152.008 208.089C152.012 208.089 152.017 208.089 152.023 208.089C152.062 208.089 152.096 208.119 152.099 208.158C152.101 208.199 152.068 208.232 152.029 208.234C152.023 208.234 152.017 208.234 152.012 208.234Z" fill="#F07162"/>
<path d="M160.27 209.661C160.24 209.661 160.21 209.644 160.199 209.613C160.186 209.575 160.205 209.534 160.242 209.521L161.686 209L161.138 205.582C161.131 205.544 161.16 205.505 161.198 205.498C161.239 205.492 161.276 205.52 161.283 205.559L161.85 209.095L160.292 209.657C160.285 209.661 160.277 209.661 160.27 209.661Z" fill="#F07162"/>
<path d="M159.178 211.108C159.223 211.097 162.053 210.959 162.053 210.959C162.053 210.959 161.727 212.14 160.676 212.194C159.625 212.248 159.178 211.108 159.178 211.108Z" fill="#FBFDFC"/>
<path d="M150.65 204.853C150.65 204.853 149.635 199.781 151.145 197.84C152.656 195.901 161.522 192.345 162.632 193.265C163.742 194.187 162.686 195.368 162.686 195.368C162.686 195.368 166.25 194.122 167.148 197.29C168.046 200.457 160.348 202.014 155.698 200.64C155.698 200.643 152.671 201.61 150.65 204.853Z" fill="black"/>
<path d="M194.131 258.302L200.424 257.965C201.028 257.933 201.534 257.447 201.54 256.841C201.546 256.176 200.994 255.653 200.342 255.69L194.01 256.029C193.857 256.037 193.727 255.921 193.718 255.768L193.703 255.472C193.697 255.334 193.792 255.211 193.928 255.185L199.72 254.107C200.316 253.997 200.752 253.451 200.681 252.849C200.601 252.188 199.986 251.743 199.342 251.862C199.342 251.862 190.422 253.03 189.012 253.099L190.717 250.284C191.138 249.815 191.1 249.096 190.631 248.675C190.163 248.254 189.444 248.293 189.023 248.761L183.524 253.609C183.477 253.66 183.44 253.729 183.41 253.809C185.081 256.089 188.088 260.466 189.632 264.415L190.638 264.326C192.702 264.145 194.781 264.343 196.775 264.907L197.276 265.049C197.904 265.226 198.561 264.84 198.699 264.19C198.826 263.596 198.442 263.013 197.857 262.847L194.228 261.819C194.113 261.787 194.034 261.686 194.027 261.569C194.018 261.394 194.17 261.256 194.342 261.28L199.856 262.072C200.489 262.163 200.977 261.716 200.942 261.079C200.907 260.442 200.363 259.846 199.731 259.755L194.107 258.946C193.977 258.926 193.878 258.818 193.869 258.687L193.865 258.594C193.861 258.44 193.98 258.309 194.131 258.302Z" fill="#FE9F73"/>
<path d="M209.614 370.325H205.901L212.6 276.032H220.026L209.614 370.325Z" fill="#FEC786"/>
<path d="M270.106 245.888H238.278L227.179 274.156H259.005L270.106 245.888Z" fill="#4CB7D8"/>
<path d="M227.179 274.156H228.839L239.938 245.888H238.278L227.179 274.156Z" fill="#3AA1C9"/>
<path d="M249.297 259.123C248.856 260.42 249.178 261.705 250.018 261.99C250.858 262.275 251.896 261.454 252.339 260.155C252.779 258.857 252.457 257.572 251.618 257.287C250.778 257.002 249.739 257.823 249.297 259.123Z" fill="#E2F2F1"/>
<path d="M216.656 271.874H228.547V274.156H216.656C216.026 274.156 215.514 273.644 215.514 273.014C215.514 272.386 216.026 271.874 216.656 271.874Z" fill="#3AA1C9"/>
<path d="M219.668 273.016H227.178V272.658H219.668V273.016Z" fill="#4CB7D8"/>
<path d="M207.948 255.575V257.808C204.038 257.808 200.858 260.988 200.858 264.898C200.858 268.806 204.038 271.986 207.948 271.986V272.874C207.948 273.582 208.522 274.154 209.228 274.154H219.096C219.804 274.154 220.376 273.58 220.376 272.874V255.573H207.948V255.575ZM202.607 264.9C202.607 261.955 205.003 259.559 207.948 259.559V270.242C205.003 270.24 202.607 267.845 202.607 264.9Z" fill="#FEBAC7"/>
<path d="M213.377 264.766L213.083 264.943L214.916 268L215.211 267.823L213.377 264.766Z" fill="#49263E"/>
<path d="M215.455 265.346L215.157 265.518L216.889 268.524L217.186 268.353L215.455 265.346Z" fill="#49263E"/>
<path d="M354.78 255.575V272.876C354.78 273.584 355.355 274.156 356.06 274.156H365.929C366.637 274.156 367.209 273.582 367.209 272.876V271.989C371.119 271.989 374.299 268.808 374.299 264.9C374.299 260.99 371.119 257.81 367.209 257.81V255.578H354.78V255.575ZM367.211 270.24V259.557C370.156 259.557 372.552 261.953 372.552 264.898C372.552 267.845 370.156 270.24 367.211 270.24Z" fill="#FECC86"/>
<path d="M361.799 264.791L359.965 267.848L360.26 268.024L362.094 264.968L361.799 264.791Z" fill="#49263E"/>
<path d="M359.691 265.36L357.958 268.366L358.256 268.537L359.988 265.531L359.691 265.36Z" fill="#49263E"/>
<path d="M420.579 242.109C420.672 241.509 421.24 241.101 421.844 241.155L425.603 241.49C425.722 241.5 425.832 241.434 425.879 241.326C425.951 241.166 425.858 240.982 425.687 240.943L420.253 239.717C419.631 239.577 419.334 238.985 419.593 238.4C419.852 237.817 420.573 237.454 421.197 237.595L426.738 238.845C426.868 238.873 426.998 238.808 427.052 238.687L427.09 238.601C427.153 238.461 427.09 238.299 426.95 238.236L421.19 235.678C420.635 235.431 420.337 234.799 420.549 234.229C420.78 233.605 421.482 233.316 422.08 233.581L427.874 236.155C428.014 236.217 428.176 236.155 428.239 236.014L428.36 235.744C428.416 235.617 428.371 235.468 428.252 235.397L423.224 232.325C422.706 232.009 422.494 231.342 422.775 230.805C423.083 230.217 423.82 230.021 424.377 230.36C424.377 230.36 432.293 234.633 433.587 235.198L432.997 231.96C432.77 231.372 433.064 230.714 433.651 230.489C434.238 230.263 434.897 230.556 435.121 231.144L438.53 237.631C438.677 238.014 438.347 238.765 437.937 239.305C435.685 245.635 435.286 246.592 434.521 248.241L428.062 245.106C426.199 244.201 424.185 243.644 422.121 243.459L421.602 243.413C420.95 243.362 420.476 242.766 420.579 242.109Z" fill="#FE9F73"/>
<path d="M439.318 236.552L465.86 259.168L462.835 274.169L455.27 273.048L429.845 247.323C429.847 247.323 433.021 239.408 439.318 236.552Z" fill="#FD7583"/>
<path d="M461.391 255.601C461.335 255.601 461.281 255.582 461.235 255.543L439.282 236.835C434.562 239.117 431.751 244.178 431.723 244.23C431.659 244.346 431.512 244.389 431.395 244.325C431.279 244.26 431.235 244.113 431.3 243.996C431.328 243.942 434.266 238.646 439.217 236.33L439.357 236.263L461.548 255.172C461.65 255.258 461.663 255.411 461.576 255.513C461.529 255.573 461.46 255.601 461.391 255.601Z" fill="#21111D"/>
<path d="M470.683 198.576C470.683 198.576 468.5 193.861 473.856 189.789C479.215 185.717 480.216 192.458 482.332 193.049C484.448 193.641 488.234 192.818 489.707 196.726C491.179 200.634 490.106 203.795 491.725 205.425C494.43 208.148 501.086 214.065 496.956 224.902C494.245 232.016 485.298 240.337 485.298 240.337C485.298 240.337 463.299 226.268 461.304 218.958C459.307 211.647 461.995 208.439 465.542 205.919C467.725 204.367 472.127 203.05 470.683 198.576Z" fill="#4C222E"/>
<path d="M473.632 200.835C473.632 200.835 471.38 210.896 472.926 213.275C472.926 213.275 473.675 214.536 475.674 214.717L475.214 221.082L484.195 221.732L485.707 200.85L473.632 200.835Z" fill="#FE9F73"/>
<path d="M475.989 209.033C476.028 209.035 476.062 209.011 476.073 208.975C476.086 208.931 476.06 208.886 476.017 208.873C475.499 208.722 475.214 208.048 475.132 207.83C475.909 207.485 476.404 206.999 476.602 206.384C476.924 205.382 476.345 204.41 476.319 204.371C476.296 204.333 476.246 204.32 476.207 204.343C476.168 204.367 476.155 204.417 476.179 204.456C476.185 204.464 476.745 205.403 476.445 206.334C476.257 206.919 475.769 207.383 474.998 207.709L474.931 207.737L474.953 207.809C474.966 207.85 475.268 208.826 475.972 209.031C475.978 209.033 475.983 209.033 475.989 209.033Z" fill="#F07162"/>
<path d="M475.49 217.278L475.676 214.718C475.676 214.718 480.022 214.776 482.798 213.295C482.796 213.295 478.942 216.499 475.49 217.278Z" fill="#F07162"/>
<path d="M481.315 205.082C481.357 205.084 481.398 205.073 481.432 205.045C481.501 204.987 481.512 204.883 481.454 204.814C481.434 204.79 479.491 202.493 477.462 203.901C477.388 203.952 477.369 204.054 477.421 204.13C477.473 204.203 477.574 204.222 477.65 204.171C479.431 202.938 481.13 204.939 481.201 205.023C481.231 205.058 481.272 205.079 481.315 205.082Z" fill="#4C222E"/>
<path d="M475.653 204.313C475.698 204.317 475.745 204.3 475.78 204.266C475.845 204.201 475.845 204.097 475.78 204.035C475.722 203.976 474.355 202.625 473.375 203.35C473.302 203.404 473.286 203.508 473.34 203.579C473.394 203.652 473.498 203.668 473.569 203.614C474.323 203.057 475.536 204.253 475.547 204.266C475.577 204.294 475.616 204.311 475.653 204.313Z" fill="#4C222E"/>
<path d="M473.688 205.447C473.671 205.699 473.859 205.917 474.111 205.935C474.364 205.952 474.582 205.764 474.599 205.511C474.616 205.259 474.429 205.041 474.176 205.023C473.926 205.006 473.708 205.194 473.688 205.447Z" fill="black"/>
<path d="M478.737 206.194C478.986 206.149 479.151 205.911 479.106 205.663C479.061 205.414 478.823 205.249 478.574 205.293C478.325 205.338 478.16 205.576 478.205 205.825C478.25 206.074 478.488 206.239 478.737 206.194Z" fill="black"/>
<path d="M488.28 209.354C488.863 208.064 488.291 206.546 487.001 205.962C485.712 205.379 484.194 205.951 483.61 207.241C483.027 208.53 483.599 210.049 484.889 210.632C486.178 211.216 487.697 210.643 488.28 209.354Z" fill="#FE9F73"/>
<path d="M486.013 209.886C486.55 209.924 486.937 209.547 487.084 209.154C487.259 208.687 487.131 208.212 486.762 207.945C486.235 207.562 485.719 207.727 485.434 207.878C485.564 207.614 485.745 207.426 485.976 207.321C486.496 207.083 487.101 207.327 487.105 207.329C487.146 207.347 487.196 207.327 487.213 207.284C487.231 207.243 487.211 207.193 487.168 207.176C487.14 207.165 486.492 206.9 485.907 207.169C485.568 207.325 485.324 207.625 485.182 208.059L485.089 208.338L485.311 208.145C485.339 208.122 485.983 207.58 486.663 208.072C487.038 208.344 487.041 208.791 486.928 209.091C486.812 209.406 486.501 209.758 486.011 209.717C485.968 209.713 485.927 209.747 485.922 209.793C485.918 209.838 485.952 209.877 485.998 209.881C486.002 209.883 486.009 209.883 486.013 209.886Z" fill="#F07162"/>
<path d="M473.632 200.835C473.632 200.835 474.694 196.957 479.988 196.905C485.281 196.853 485.704 200.85 485.704 200.85L479.61 201.634L474.02 200.835H473.632Z" fill="#FE9F73"/>
<path d="M473.874 197.503C473.874 197.503 476.915 200.945 481.216 200.526C481.216 200.526 482.259 205.818 485.348 205.801C488.437 205.783 487.287 198.475 487.287 198.475C487.287 198.475 481.71 195.718 481.345 195.692C480.983 195.666 474.912 194.861 474.912 194.861L473.874 197.503Z" fill="#4C222E"/>
<path d="M475.1 210.108C475.148 210.093 478.202 209.704 478.202 209.704C478.202 209.704 477.95 211.01 476.814 211.159C475.679 211.306 475.1 210.108 475.1 210.108Z" fill="#FBFDFC"/>
<path d="M468.863 366.486H484.666V312.423H488.176V366.486H503.569C505.717 366.486 507.46 368.228 507.46 370.374H488.176H484.666H464.973C464.975 368.228 466.715 366.486 468.863 366.486Z" fill="#4C222E"/>
<path d="M532.123 228.766H495.802L476.587 312.423L518.209 308.083L532.123 228.766Z" fill="#FEC786"/>
<path d="M448.925 303.902C448.925 303.902 496.658 303.902 510.903 303.902C513.202 303.902 515.173 302.261 515.59 300.001L528.256 231.427C528.597 229.585 530.397 228.381 532.241 228.791C533.999 229.179 535.095 230.941 534.769 232.712L520.421 310.396C520.309 310.999 520.041 311.53 519.666 311.962C518.742 313.676 516.93 314.844 514.847 314.844H448.925C445.905 314.844 443.455 312.396 443.455 309.373C443.457 306.353 445.905 303.902 448.925 303.902Z" fill="#F99247"/>
<path d="M510.902 304.169C513.329 304.169 515.41 302.438 515.853 300.05L528.519 231.476C528.67 230.653 529.139 229.947 529.836 229.485C530.533 229.023 531.367 228.87 532.185 229.051C532.327 229.084 532.472 228.993 532.502 228.849C532.535 228.704 532.444 228.561 532.299 228.531C531.339 228.317 530.359 228.499 529.54 229.041C528.722 229.583 528.172 230.414 527.995 231.379L515.328 299.953C514.933 302.086 513.072 303.636 510.902 303.636C510.756 303.636 510.635 303.755 510.635 303.904C510.637 304.05 510.756 304.169 510.902 304.169Z" fill="#21111D"/>
<path d="M518.128 229.032C518.128 229.032 518.13 229.032 518.128 229.032L530.84 229.013C530.987 229.013 531.105 228.892 531.105 228.745C531.105 228.598 530.987 228.479 530.838 228.479L518.128 228.499C517.982 228.499 517.863 228.618 517.863 228.767C517.863 228.913 517.982 229.032 518.128 229.032Z" fill="#21111D"/>
<path d="M414.4 365.452L433.347 363.912L433.541 359.929L433.729 345.88L414.163 347.866L414.4 365.452Z" fill="#FE9F73"/>
<path d="M465.506 266.58C465.506 266.58 424.638 271.708 418.925 279.031C416.108 282.643 410.369 331.086 412.751 351.239C412.751 351.239 427.349 352.242 434.331 350.552L436.03 301.414L467.412 291.923L483.524 267.167L465.506 266.58Z" fill="#3AA1C9"/>
<path d="M424.331 351.794C430.257 351.794 434.35 350.822 434.391 350.811L434.59 350.764L436.308 301.077L434.115 302.843L434.452 303.26L435.734 302.228L434.07 350.334C433.161 350.53 429.206 351.312 423.813 351.254L423.809 351.789C423.983 351.794 424.158 351.794 424.331 351.794Z" fill="#21111D"/>
<path d="M427.749 370.325L401.879 370.318C401.646 370.281 401.453 370.24 401.315 370.195C399.655 369.666 399.517 368.697 399.595 368.135C399.629 367.887 399.774 367.667 399.988 367.529L414.279 358.275L419.001 360.365C420.503 361.034 422.105 361.46 423.746 361.617C427.097 361.939 432.472 362.114 433.541 360.032L433.373 368.021C433.373 368.019 434.154 370.387 427.749 370.325Z" fill="#CE1D37"/>
<path d="M464.962 304.424C464.962 304.424 480.624 304.681 491.602 304.305C495.126 304.184 498.262 304.433 500.119 304.02C507.759 302.323 509.642 278.472 500.965 263.857C492.289 249.243 461.933 294.112 461.933 294.112L464.962 304.424Z" fill="#4CB7D8"/>
<path d="M436.766 365.717L452.923 364.847C454.672 364.752 456.056 363.329 456.099 361.578L456.494 345.67L436.928 347.657L436.766 365.717Z" fill="#FE9F73"/>
<path d="M478.103 271.708C478.103 271.708 436.136 276.684 435.026 281.128C433.917 285.571 431.527 331.194 433.908 351.347C433.908 351.347 449.605 352.245 456.587 350.554L458.468 304.201L465.238 304.437L481.656 275.551L478.103 271.708Z" fill="#4CB7D8"/>
<path d="M447.166 351.893C454.102 351.893 456.574 350.848 456.693 350.796L456.846 350.729L458.668 304.102L455.801 305.454L456.03 305.937L458.098 304.961L456.326 350.36C455.577 350.619 451.978 351.657 443.483 351.264L443.459 351.8C444.815 351.865 446.048 351.893 447.166 351.893Z" fill="#21111D"/>
<path d="M455.149 341.467C455.89 338.61 454.622 311.13 454.631 309.947L454.096 309.942C454.094 310.232 455.354 338.541 454.631 341.333L455.149 341.467Z" fill="#21111D"/>
<path d="M476.747 304.923C483.582 304.923 491.775 304.692 500.987 303.999L500.946 303.467C473.502 305.536 455.095 303.489 454.914 303.467L454.854 303.996C454.974 304.012 463.178 304.923 476.747 304.923Z" fill="#21111D"/>
<path d="M450.324 370.325L424.454 370.318C424.221 370.281 424.029 370.24 423.89 370.195C422.23 369.666 422.092 368.697 422.17 368.135C422.204 367.887 422.349 367.667 422.563 367.529L436.855 358.275L441.576 360.365C443.079 361.034 444.681 361.46 446.321 361.617C449.672 361.939 455.099 362.112 456.166 360.03L455.948 368.019C455.946 368.019 456.727 370.387 450.324 370.325Z" fill="#EF3A4C"/>
<path d="M487.176 315.154L513.033 315.109C519.998 315.737 520.827 309.776 520.868 309.45L522.405 301.127C522.431 300.982 522.336 300.842 522.191 300.816C522.047 300.79 521.906 300.885 521.881 301.03L520.339 309.383C520.315 309.621 519.672 315.18 513.07 314.578L513.046 314.576L487.179 314.621C487.032 314.621 486.913 314.742 486.913 314.889C486.911 315.036 487.03 315.154 487.176 315.154Z" fill="#21111D"/>
<path d="M459.836 235.155C459.333 235.848 457.269 257.797 456.956 261.144L457.733 262.359L467.338 274.154C469.193 271.334 469.955 269.709 469.955 269.709C469.955 269.709 460.38 234.404 459.836 235.155Z" fill="#FD7583"/>
<path d="M498.401 284.461C498.401 284.461 487.556 282.73 476.749 278.658C465.942 274.586 459.361 271.941 459.361 271.941C459.361 271.941 459.791 268.862 460.307 266.239L461.211 261.625L459.765 237.923C459.765 237.923 458.215 226.776 471.866 219.996C471.391 220.413 472.984 219.452 472.984 219.452C472.984 219.452 486.714 215.955 491.766 217.183C501.116 219.452 505.922 233.739 505.922 233.739C509.802 246.92 513.552 265.421 510.7 272.645C507.077 281.821 500.436 284.034 498.407 284.507C498.403 284.476 498.401 284.461 498.401 284.461Z" fill="#FD7583"/>
<path d="M457.809 252.548C457.8 252.548 457.794 252.548 457.785 252.546C457.654 252.533 457.557 252.415 457.57 252.283L457.813 249.8C458.485 237.146 460.473 231.413 460.493 231.357C463.917 222.764 472.809 219.26 472.898 219.226C473.021 219.178 473.161 219.241 473.211 219.364C473.258 219.489 473.196 219.627 473.072 219.677C472.984 219.711 464.286 223.142 460.946 231.528C460.929 231.575 458.964 237.254 458.297 249.837L458.053 252.33C458.038 252.456 457.932 252.548 457.809 252.548Z" fill="#21111D"/>
<path d="M473.688 219.277C473.688 219.277 475.944 223.684 479.877 223.257C483.813 222.827 486.665 218.906 486.455 217.039C486.455 217.039 477.729 217.589 473.688 219.277Z" fill="#FE9F73"/>
<path d="M451.438 248.306H451.514H459.165L457.231 271.092H451.514H451.438H445.516L443.787 248.306H451.438Z" fill="#49263E"/>
<path d="M445.83 244.309H451.438H451.512H457.121C457.777 244.309 458.31 244.847 458.31 245.508H451.512H451.438H444.64C444.64 244.845 445.173 244.309 445.83 244.309Z" fill="#CE1D37"/>
<path d="M443.958 246.123C444.033 245.765 444.346 245.508 444.709 245.508H451.438H451.512H458.241C458.604 245.508 458.919 245.765 458.992 246.123L459.631 249.169C459.733 249.651 459.368 250.104 458.88 250.104H451.512H451.438H444.07C443.582 250.104 443.217 249.651 443.319 249.169L443.958 246.123Z" fill="#EF3A4C"/>
<path d="M458.787 255.301L458.286 264.566H451.525H451.43H444.666L444.165 255.301H451.43H451.525H458.787Z" fill="#EF3A4C"/>
<path d="M458.44 264.725H444.668C444.58 264.725 444.506 264.654 444.506 264.564C444.506 264.475 444.578 264.402 444.668 264.402H458.135L458.628 255.29C458.632 255.202 458.708 255.133 458.798 255.139C458.887 255.144 458.956 255.219 458.949 255.31L458.44 264.725Z" fill="#21111D"/>
<path d="M447.849 253.058C447.793 253.058 447.739 253.028 447.709 252.976L446.394 250.655C446.351 250.577 446.377 250.48 446.455 250.435C446.533 250.391 446.63 250.417 446.675 250.495L447.99 252.816C448.033 252.894 448.007 252.991 447.929 253.036C447.903 253.051 447.875 253.058 447.849 253.058Z" fill="#21111D"/>
<path d="M447.63 254.39C447.574 254.39 447.52 254.362 447.49 254.31L446.3 252.268C446.255 252.19 446.281 252.093 446.358 252.047C446.436 252.002 446.533 252.028 446.579 252.106L447.768 254.148C447.813 254.226 447.787 254.323 447.71 254.368C447.684 254.383 447.656 254.39 447.63 254.39Z" fill="#21111D"/>
<path d="M446.699 260.602C445.715 259.146 447.131 257.795 447.131 257.795C447.028 255.852 448.034 255.038 448.034 255.038C448.034 255.038 452.498 257.596 455.197 259.211C456.879 259.272 457.606 258.579 457.606 258.579L457.636 258.654C457.932 257.242 458.303 255.476 458.34 255.277C458.403 254.938 459.046 254.498 459.692 255.727C460.337 256.955 461.771 260.012 461.771 260.012L466.123 258.443L467.34 270.974C467.34 270.974 456.818 270.51 455.218 270.328C453.619 270.147 448.37 267.828 446.989 266.17C445.607 264.512 446.186 263.367 446.186 263.367C445.244 261.679 446.699 260.602 446.699 260.602Z" fill="#FE9F73"/>
<path d="M450.264 260.269C450.344 260.284 450.428 260.247 450.469 260.172C450.521 260.079 450.484 259.96 450.391 259.911C449.075 259.196 447.276 257.665 447.259 257.65C447.177 257.581 447.056 257.59 446.987 257.672C446.918 257.754 446.926 257.875 447.008 257.944C447.084 258.009 448.856 259.516 450.208 260.25C450.225 260.258 450.245 260.265 450.264 260.269Z" fill="#F07162"/>
<path d="M449.815 262.677C449.905 262.694 449.996 262.644 450.03 262.556C450.069 262.456 450.02 262.344 449.92 262.305C448.219 261.649 446.842 260.466 446.829 260.455C446.747 260.386 446.626 260.394 446.557 260.474C446.488 260.554 446.496 260.677 446.576 260.746C446.635 260.796 448.016 261.983 449.782 262.666C449.791 262.672 449.802 262.674 449.815 262.677Z" fill="#F07162"/>
<path d="M448.878 265.345C448.966 265.362 449.055 265.315 449.091 265.231C449.132 265.131 449.087 265.019 448.988 264.978C447.537 264.369 446.328 263.24 446.315 263.227C446.237 263.154 446.114 263.158 446.041 263.236C445.967 263.313 445.972 263.436 446.049 263.51C446.101 263.557 447.321 264.699 448.837 265.334C448.852 265.339 448.865 265.343 448.878 265.345Z" fill="#F07162"/>
<path d="M504.193 281.97C503.694 282.348 503.213 282.669 502.764 282.941C500.063 284.58 497.923 284.859 497.833 284.872C497.697 284.889 497.572 284.792 497.554 284.656C497.537 284.52 497.634 284.394 497.77 284.377C497.792 284.375 499.914 284.094 502.526 282.503C504.936 281.035 508.269 278.118 510.467 272.554C513.226 265.57 509.696 247.602 505.836 234.337C505.797 234.205 505.872 234.065 506.006 234.028C506.138 233.989 506.276 234.065 506.315 234.199C510.197 247.537 513.735 265.637 510.931 272.738C509.087 277.406 506.451 280.26 504.193 281.97Z" fill="#21111D"/>
<path d="M490.644 262.178C490.605 262.206 490.56 262.225 490.508 262.227C490.37 262.236 490.253 262.13 490.244 261.992C490.234 261.811 489.241 243.815 487.809 232.728C487.792 232.592 487.889 232.467 488.025 232.45C488.161 232.432 488.286 232.53 488.303 232.666C489.737 243.772 490.732 261.787 490.741 261.966C490.747 262.05 490.709 262.128 490.644 262.178Z" fill="#21111D"/>
<path d="M479.34 226.34C479.15 226.374 478.955 226.407 478.757 226.437C478.645 226.454 478.539 226.376 478.521 226.262C478.504 226.15 478.58 226.044 478.696 226.027C487.211 224.748 488.306 218.356 488.312 218.291C488.325 218.178 488.424 218.094 488.537 218.105C488.649 218.116 488.733 218.209 488.727 218.323C488.72 218.388 487.639 224.813 479.34 226.34Z" fill="#21111D"/>
<path d="M466.421 257.618C466.434 251.696 466.361 245.011 466.03 241.645C466.017 241.507 466.117 241.386 466.255 241.373C466.393 241.36 466.514 241.459 466.527 241.598C466.862 244.996 466.933 251.747 466.92 257.702C466.754 257.672 466.585 257.644 466.421 257.618Z" fill="#21111D"/>
<path d="M471.352 263.173L467.341 257.855L463.226 257.35C463.226 257.35 460.763 262.577 460.141 266.872C459.519 271.166 459.15 271.706 459.15 271.706L472.984 272.168L471.352 263.173Z" fill="#FD7583"/>
<path d="M477.666 279.152C477.735 279.133 477.791 279.079 477.815 279.007C477.852 278.891 477.787 278.768 477.671 278.733C474.374 277.708 461.114 272.409 459.586 271.796C459.793 266.224 462.742 258.568 463.225 257.352L489.972 262.217L493.709 263.549C493.823 263.59 493.949 263.529 493.99 263.415C494.031 263.3 493.97 263.175 493.856 263.134L490.069 261.787L462.953 256.856L462.886 257.02C462.85 257.106 459.316 265.809 459.143 271.937L459.139 272.09L459.281 272.146C459.428 272.204 474.044 278.062 477.541 279.152C477.582 279.165 477.627 279.165 477.666 279.152Z" fill="#21111D"/>
<path d="M612.371 291.588C612.371 291.588 610.804 269.726 602.317 273.97C593.83 278.213 586.913 306.071 585.991 306.9C585.07 307.731 585.346 333.189 585.346 333.189L595.214 328.208C595.216 328.21 597.842 267.355 612.371 291.588Z" fill="#258D8C"/>
<path d="M602.861 246.324C602.861 246.324 583.847 263.337 578.657 292.51C573.467 321.683 589.864 330.268 589.864 330.268C589.864 330.268 592.198 268.929 602.861 246.324Z" fill="#7FC6A6"/>
<path d="M567.591 334.204C567.591 334.204 564.409 272.103 548.36 245.177C548.36 245.177 576.535 261.988 585.879 306.112C586.406 308.597 586.717 311.357 587.116 314.017C587.531 316.782 587.777 319.233 587.714 321.679C587.602 325.999 587.004 329.713 586.827 332.442C585.303 356.021 567.591 334.204 567.591 334.204Z" fill="#258D8C"/>
<path d="M568.135 307.833C567.043 298.979 563.681 290.539 558.28 283.44C554.377 278.312 549.86 274.415 546.33 277.196C538.489 283.375 536.922 321.75 536.922 321.75C536.922 321.75 545.778 295.183 549.651 296.936C553.524 298.689 557.123 334.756 557.123 334.756L571.604 335.955L568.135 307.833Z" fill="#7FC6A6"/>
<path d="M587.887 332.036C588.48 318.477 586.781 305.465 582.833 293.359C579.674 283.673 575.078 274.543 569.171 266.222C559.113 252.052 548.593 245.05 548.487 244.981L548.23 245.372C548.334 245.441 558.796 252.404 568.802 266.509C578.034 279.521 588.759 301.449 587.418 332.012L587.887 332.036Z" fill="#21111D"/>
<path d="M590.1 330.276C590.106 330.123 590.704 314.74 592.598 296.794C594.344 280.242 597.578 258.071 603.073 246.423L602.649 246.222C597.127 257.929 593.882 280.158 592.131 296.746C590.236 314.707 589.636 330.104 589.631 330.257L590.1 330.276Z" fill="#21111D"/>
<path d="M595.449 328.219C595.454 328.119 595.898 318.117 597.369 307.982C599.301 294.656 602.094 287.158 605.445 286.299C607.425 285.791 609.687 287.611 612.17 291.707L612.572 291.463C609.968 287.169 607.531 285.28 605.329 285.843C601.727 286.765 598.895 294.192 596.905 307.915C595.432 318.073 594.985 328.096 594.981 328.195L595.449 328.219Z" fill="#21111D"/>
<path d="M571.371 335.985L571.836 335.927L568.366 307.803C567.259 298.83 563.835 290.356 558.463 283.298C555.063 278.828 552.043 276.397 549.484 276.073C548.278 275.92 547.166 276.235 546.184 277.01C542.883 279.612 540.281 287.94 538.452 301.757C537.095 312.015 536.691 321.642 536.687 321.737L537.155 321.757C537.17 321.375 538.809 283.421 546.475 277.377C547.356 276.682 548.351 276.399 549.428 276.535C551.855 276.844 554.772 279.213 558.092 283.578C563.414 290.569 566.805 298.966 567.902 307.857L571.371 335.985Z" fill="#21111D"/>
<path d="M556.29 301.29L555.874 301.505L558.915 307.404L559.331 307.189L556.29 301.29Z" fill="#21111D"/>
<path d="M556.315 305.278L555.904 305.505L558.946 311.029L559.356 310.803L556.315 305.278Z" fill="#21111D"/>
<path d="M590.026 266.162L587.426 271.872L587.852 272.066L590.452 266.356L590.026 266.162Z" fill="#21111D"/>
<path d="M589.672 270.594L587.458 274.59L587.867 274.817L590.081 270.821L589.672 270.594Z" fill="#21111D"/>
<path d="M604.593 276.065L600.165 278.322L600.378 278.74L604.806 276.483L604.593 276.065Z" fill="#21111D"/>
<path d="M602.715 278.669L600.096 280.263L600.339 280.663L602.958 279.07L602.715 278.669Z" fill="#21111D"/>
<path d="M600.242 326.63C600.242 326.63 599.415 372.03 587.257 370.966H577.695H576.16H566.598C554.439 372.03 553.612 326.63 553.612 326.63C565.119 324.892 588.735 324.892 600.242 326.63Z" fill="#F99247"/>
<path d="M558.448 332.452L558.108 332.774L571.391 346.809L571.731 346.487L558.448 332.452Z" fill="#21111D"/>
<path d="M562.353 341.496L562 341.803L569.312 350.215L569.666 349.908L562.353 341.496Z" fill="#21111D"/>
<path d="M401.305 266.725C401.305 266.725 402.831 270.564 401.551 273.467L430.884 273.714L433.591 273.467L435.976 271.989V269.726L435.314 267.856L433.148 266.725H401.305Z" fill="white"/>
<path d="M432.256 274.088H400.565C400.358 274.088 400.192 273.922 400.192 273.715C400.192 273.508 400.358 273.341 400.565 273.341H432.256C434.169 273.341 435.725 271.897 435.725 270.122C435.725 268.347 434.169 266.903 432.256 266.903H400.565C400.358 266.903 400.192 266.735 400.192 266.53C400.192 266.324 400.358 266.156 400.565 266.156H432.256C434.581 266.156 436.472 267.935 436.472 270.122C436.472 272.307 434.581 274.088 432.256 274.088Z" fill="#EF3A4C"/>
<path d="M417.287 270.205H401.734C401.689 270.205 401.652 270.168 401.652 270.123C401.652 270.078 401.689 270.041 401.734 270.041H417.287C417.332 270.041 417.369 270.078 417.369 270.123C417.369 270.168 417.332 270.205 417.287 270.205Z" fill="#AAC9F8"/>
<path d="M434.586 270.205H419.478C419.433 270.205 419.396 270.168 419.396 270.123C419.396 270.078 419.433 270.041 419.478 270.041H434.586C434.631 270.041 434.668 270.078 434.668 270.123C434.668 270.168 434.631 270.205 434.586 270.205Z" fill="#AAC9F8"/>
<path d="M434.18 271.693H426.428C426.382 271.693 426.346 271.656 426.346 271.611C426.346 271.565 426.382 271.529 426.428 271.529H434.18C434.226 271.529 434.262 271.565 434.262 271.611C434.262 271.656 434.226 271.693 434.18 271.693Z" fill="#AAC9F8"/>
<path d="M425.29 271.693H401.734C401.689 271.693 401.652 271.656 401.652 271.611C401.652 271.565 401.689 271.529 401.734 271.529H425.29C425.335 271.529 425.372 271.565 425.372 271.611C425.374 271.656 425.337 271.693 425.29 271.693Z" fill="#AAC9F8"/>
<path d="M432.256 274.171H400.566C400.313 274.171 400.108 273.966 400.108 273.714C400.108 273.461 400.313 273.256 400.566 273.256C400.611 273.256 400.648 273.293 400.648 273.338C400.648 273.383 400.611 273.42 400.566 273.42C400.406 273.42 400.275 273.549 400.275 273.711C400.275 273.871 400.404 274.003 400.566 274.003H432.256C434.536 274.003 436.391 272.26 436.391 270.119C436.391 267.977 434.536 266.235 432.256 266.235H400.566C400.406 266.235 400.275 266.364 400.275 266.526C400.275 266.686 400.404 266.818 400.566 266.818C400.611 266.818 400.648 266.854 400.648 266.9C400.648 266.945 400.611 266.982 400.566 266.982C400.313 266.982 400.108 266.776 400.108 266.524C400.108 266.271 400.313 266.066 400.566 266.066H432.256C434.627 266.066 436.557 267.882 436.557 270.117C436.557 272.355 434.627 274.171 432.256 274.171Z" fill="#21111D"/>
<path d="M410.113 268.633C410.113 268.633 409.115 271.121 409.689 272.951L410.501 271.699C410.501 271.699 411.054 272.364 411.395 272.951C411.395 272.951 412.015 268.862 413.215 268.633H410.113Z" fill="#7FC6A6"/>
<path d="M434.18 268.715H401.736C401.691 268.715 401.654 268.679 401.654 268.633C401.654 268.588 401.691 268.551 401.736 268.551H434.18C434.226 268.551 434.262 268.588 434.262 268.633C434.262 268.679 434.226 268.715 434.18 268.715Z" fill="#AAC9F8"/>
<path d="M451.002 370.325H454.715L448.016 276.032H440.59L451.002 370.325Z" fill="#FEC786"/>
<path d="M463.5 274.152H197.119V281.126H463.5V274.152Z" fill="#4C222E"/>
<path d="M662.69 370.426H40.8447V372H662.69V370.426Z" fill="black"/>
<path d="M417.606 164.539L470.127 122.137C471.228 121.248 471.379 119.597 470.397 118.587C458.77 106.545 438.359 106.156 423.521 118.136C408.682 130.116 404.755 150.145 414.079 164.054C414.864 165.224 416.505 165.427 417.606 164.539Z" fill="#FF6633"/>
<path fill-rule="evenodd" clip-rule="evenodd" d="M99.5924 20.317C100.132 15.7051 104.318 12.3802 108.943 12.8906C119.357 14.0399 129.084 20.3239 134.769 30.172C140.455 40.0203 141.032 51.5856 136.822 61.1773C134.952 65.4377 129.98 67.4012 125.716 65.5629C121.452 63.7246 119.511 58.7807 121.381 54.5204C123.367 49.9942 123.265 44.0245 120.143 38.6167C117.02 33.2071 111.901 30.1338 106.989 29.5917C102.364 29.0813 99.0529 24.9289 99.5924 20.317Z" fill="#70C05B"/>
<path d="M470.706 175.809H422.552C421.579 175.809 420.789 175.019 420.789 174.045V150.836C420.789 149.862 421.579 149.072 422.552 149.072H470.706C471.68 149.072 472.47 149.862 472.47 150.836V174.045C472.47 175.019 471.682 175.809 470.706 175.809Z" fill="white"/>
<path d="M467.617 155.875H424.524C424.226 155.875 423.984 155.633 423.984 155.335C423.984 155.037 424.226 154.795 424.524 154.795H467.617C467.915 154.795 468.157 155.037 468.157 155.335C468.159 155.633 467.917 155.875 467.617 155.875Z" fill="#61A3C5"/>
<path d="M452.524 162.009H424.524C424.226 162.009 423.984 161.767 423.984 161.469C423.984 161.171 424.226 160.929 424.524 160.929H452.524C452.822 160.929 453.064 161.171 453.064 161.469C453.064 161.767 452.822 162.009 452.524 162.009Z" fill="#61A3C5"/>
<path d="M467.939 162.009H456.764C456.466 162.009 456.225 161.767 456.225 161.469C456.225 161.171 456.466 160.929 456.764 160.929H467.939C468.237 160.929 468.478 161.171 468.478 161.469C468.478 161.767 468.237 162.009 467.939 162.009Z" fill="#61A3C5"/>
<path d="M442.125 168.143H424.526C424.228 168.143 423.986 167.901 423.986 167.603C423.986 167.305 424.228 167.063 424.526 167.063H442.125C442.423 167.063 442.665 167.305 442.665 167.603C442.665 167.901 442.423 168.143 442.125 168.143Z" fill="#61A3C5"/>
<path d="M467.939 168.143H446.071C445.774 168.143 445.532 167.901 445.532 167.603C445.532 167.305 445.774 167.063 446.071 167.063H467.939C468.237 167.063 468.479 167.305 468.479 167.603C468.479 167.901 468.237 168.143 467.939 168.143Z" fill="#61A3C5"/>
<path d="M456.667 174.399C456.721 174.613 465.041 185.441 465.093 185.121C465.147 184.802 464.132 173.493 464.132 173.493L456.667 174.399Z" fill="white"/>
</svg>
